<?xml version="1.0" standalone="no"?>
<!DOCTYPE svg PUBLIC "-//W3C//DTD SVG 20010904//EN"
 "http://www.w3.org/TR/2001/REC-SVG-20010904/DTD/svg10.dtd">
<svg version="1.0" xmlns="http://www.w3.org/2000/svg"
 width="404.000000pt" height="404.000000pt" viewBox="0 0 404.000000 404.000000"
 preserveAspectRatio="xMidYMid meet">
<metadata>
Created by potrace 1.14, written by Peter Selinger 2001-2017
</metadata>
<g transform="translate(0.000000,404.000000) scale(0.100000,-0.100000)"
fill="#000000" stroke="none">
<path d="M131 3922 c-15 -5 -1 -134 26 -242 57 -232 247 -474 463 -588 45 -24
161 -72 189 -78 37 -7 56 -12 56 -14 0 -1 11 -4 25 -6 115 -19 94 -22 -200
-22 -173 0 -372 -1 -441 -1 l-127 -1 4 -57 c2 -32 7 -74 11 -93 4 -19 7 -39 8
-45 6 -68 95 -269 158 -354 140 -191 369 -338 587 -377 19 -3 42 -7 50 -9 8
-2 28 -4 44 -4 39 -1 26 -12 -21 -17 -64 -8 -193 -37 -193 -43 0 -4 -8 -7 -17
-8 -31 -3 -161 -67 -220 -110 -48 -34 -118 -96 -161 -142 -39 -42 -119 -155
-135 -191 -4 -8 -11 -22 -16 -30 -12 -20 -52 -118 -56 -139 -1 -9 -8 -34 -14
-56 -33 -125 -35 -234 -7 -411 7 -46 37 -147 47 -160 5 -6 6 -14 2 -17 -3 -4
-2 -7 4 -7 6 0 14 -11 17 -25 10 -41 88 -163 137 -215 8 -9 23 -27 32 -40 16
-23 15 -24 -113 -153 -72 -72 -130 -133 -130 -136 0 -10 1214 -6 1229 4 9 5
12 4 8 -2 -8 -13 106 -11 115 2 5 7 8 7 8 0 0 -11 380 -12 398 -1 6 3 13 3 16
-2 5 -9 94 -7 104 2 10 11 8 576 -3 576 -7 0 -7 3 0 8 15 11 17 32 3 32 -9 0
-9 3 0 12 7 7 8 17 1 30 -5 10 -6 18 -2 18 12 0 10 134 -2 142 -6 5 -6 8 1 8
6 0 11 7 11 15 0 8 -5 15 -10 15 -5 0 -5 6 1 13 6 7 9 22 6 34 -3 11 0 24 7
29 13 8 889 13 922 5 14 -3 -90 -113 -425 -448 -243 -245 -455 -457 -470 -471
l-28 -27 938 2 c515 0 942 2 947 2 10 1 11 132 1 158 -3 7 -2 13 2 13 8 0 6
114 -2 136 -3 8 -2 14 2 14 4 0 6 26 4 57 -2 32 -3 67 -2 78 1 11 1 25 1 30 0
6 -2 208 -5 450 -3 242 -6 442 -7 445 -1 3 0 10 1 15 1 6 2 100 2 210 1 110 4
212 9 227 15 54 3 58 -205 59 -103 0 -187 1 -185 3 2 2 15 9 28 16 19 10 22
10 15 -2 -4 -7 3 -4 15 7 13 11 24 18 25 15 3 -8 86 32 86 42 0 5 4 7 8 4 8
-5 122 98 122 110 0 3 9 19 21 35 21 29 57 123 65 167 22 118 -16 273 -90 367
-41 52 -98 105 -113 105 -7 0 -13 4 -13 9 0 9 -87 47 -130 57 -14 3 -32 7 -40
9 -8 2 -26 4 -40 5 -16 2 -9 5 20 11 92 17 137 34 203 77 66 43 162 157 171
204 2 7 8 26 15 42 34 85 26 236 -19 341 -27 64 -116 175 -140 175 -5 0 -10 4
-10 8 0 18 -127 75 -194 88 -28 5 -133 8 -146 4 -3 -1 -18 -4 -33 -6 -57 -10
-138 -46 -188 -86 -64 -50 -89 -75 -89 -88 0 -5 -4 -10 -9 -10 -12 0 -69 -114
-76 -150 -3 -14 -8 -41 -12 -60 -6 -35 -6 -34 -20 25 -18 81 -64 170 -118 228
-24 26 -47 47 -51 47 -3 0 -19 11 -35 24 -32 27 -113 60 -174 71 -58 11 -138
11 -152 1 -7 -5 -13 -6 -13 -3 0 9 -99 -22 -140 -43 -116 -60 -232 -215 -243
-322 -2 -21 -6 -40 -9 -43 -9 -9 2 -137 16 -184 22 -74 65 -147 116 -198 48
-48 140 -109 176 -118 10 -3 46 -11 79 -19 33 -8 50 -14 38 -15 -83 -4 -206
-59 -273 -123 -102 -98 -164 -243 -153 -363 2 -22 4 -47 4 -55 2 -36 31 -119
59 -167 84 -147 248 -239 420 -235 56 2 105 7 105 12 0 1 9 3 19 5 41 8 145
68 188 110 26 24 62 70 81 102 37 61 73 166 62 183 -3 5 -1 10 4 10 6 0 11 -3
12 -7 1 -5 2 -19 4 -33 7 -66 69 -182 128 -240 65 -64 133 -106 197 -122 19
-5 49 -13 65 -17 18 -5 -75 -9 -227 -10 -240 -1 -405 -16 -442 -39 -6 -3 -18
-7 -26 -9 -20 -3 -142 -54 -160 -67 -8 -6 -31 -20 -50 -30 -19 -11 -37 -22
-40 -25 -3 -3 -23 -19 -45 -36 -75 -56 -226 -230 -224 -259 0 -5 -3 -12 -8
-15 -35 -24 -117 -268 -122 -360 -2 -38 -12 -17 -18 36 -3 26 -9 56 -14 65 -5
10 -8 18 -5 18 3 0 -4 26 -15 58 -11 31 -22 62 -23 67 -4 18 -65 133 -91 172
-76 111 -191 222 -300 287 -55 34 -188 93 -226 102 -11 2 -28 6 -40 9 -11 2
-28 6 -37 9 -9 3 -39 8 -67 12 -58 7 -71 14 -29 15 16 0 36 2 44 4 8 2 31 6
50 9 91 17 258 86 334 140 119 83 191 154 260 258 20 29 40 58 46 65 5 7 10
14 10 17 0 3 11 29 23 58 54 122 72 189 83 311 l7 77 -284 0 c-156 1 -337 1
-401 1 -65 1 -118 5 -118 10 0 8 30 14 53 10 4 0 7 3 7 7 0 4 8 8 18 8 73 4
211 66 327 149 51 36 156 134 190 177 44 55 140 218 129 218 -4 0 -2 6 3 13
30 37 67 195 74 313 l3 48 -942 0 c-518 1 -946 0 -951 -2z m3425 -260 c51 -26
88 -66 113 -122 39 -86 18 -185 -55 -259 -24 -24 -44 -41 -44 -37 0 4 -11 -1
-25 -10 -34 -22 -117 -26 -168 -8 -73 26 -136 89 -154 156 -11 39 -6 137 7
153 7 8 9 15 5 15 -4 0 7 18 25 39 32 42 82 77 128 92 41 13 124 4 168 -19z
m-540 -397 c35 -75 76 -130 130 -175 75 -61 137 -89 244 -109 29 -6 36 -9 20
-11 -141 -11 -268 -86 -353 -209 -29 -43 -79 -171 -74 -193 1 -6 -3 -12 -9
-15 -6 -2 -10 6 -9 19 3 33 -39 141 -74 191 -33 47 -114 127 -129 127 -6 0
-12 4 -14 8 -7 17 -106 55 -173 67 l-70 11 55 7 c107 14 182 50 263 126 74 69
133 178 142 261 2 19 5 40 6 45 1 6 7 -17 14 -50 6 -33 20 -78 31 -100z
m-1839 -291 c-3 -3 -12 -4 -19 -1 -8 3 -5 6 6 6 11 1 17 -2 13 -5z m670 -1969
c0 -8 -4 -12 -9 -9 -5 3 -6 10 -3 15 9 13 12 11 12 -6z m37 -11 c3 -8 2 -12
-4 -9 -6 3 -10 10 -10 16 0 14 7 11 14 -7z m-79 -13 c3 -5 2 -12 -3 -15 -5 -3
-9 1 -9 9 0 17 3 19 12 6z m61 -97 c1 -9 0 -13 -4 -10 -3 4 -7 14 -8 22 -1 9
0 13 4 10 3 -4 7 -14 8 -22z m-136 -64 c0 -5 -5 -10 -11 -10 -5 0 -7 5 -4 10
3 6 8 10 11 10 2 0 4 -4 4 -10z m100 0 c0 -5 -2 -10 -4 -10 -3 0 -8 5 -11 10
-3 6 -1 10 4 10 6 0 11 -4 11 -10z m-220 -16 c0 -8 -19 -13 -24 -6 -3 5 1 9 9
9 8 0 15 -2 15 -3z m214 -23 c3 -5 -2 -15 -12 -22 -15 -12 -16 -12 -5 2 7 9
10 19 6 22 -3 4 -4 7 0 7 3 0 8 -4 11 -9z m-539 -21 c3 -5 1 -10 -4 -10 -6 0
-11 5 -11 10 0 6 2 10 4 10 3 0 8 -4 11 -10z m-345 -116 c0 -8 -19 -13 -24 -6
-3 5 1 9 9 9 8 0 15 -2 15 -3z m830 -118 c0 -3 -4 -8 -10 -11 -5 -3 -10 -1
-10 4 0 6 5 11 10 11 6 0 10 -2 10 -4z m35 -45 c3 -5 2 -12 -3 -15 -5 -3 -9 1
-9 9 0 17 3 19 12 6z m-40 -121 c3 -5 1 -10 -4 -10 -6 0 -11 5 -11 10 0 6 2
10 4 10 3 0 8 -4 11 -10z m85 0 c0 -5 -2 -10 -4 -10 -3 0 -8 5 -11 10 -3 6 -1
10 4 10 6 0 11 -4 11 -10z"/>
</g>
</svg>
