<svg width="32" height="29" viewBox="0 0 32 29" fill="none" xmlns="http://www.w3.org/2000/svg">
<path d="M16.2109 15.5417C17.7608 14.1528 19.3108 13.6036 19.3108 12.0695C19.3108 10.5353 17.923 9.29167 16.2109 9.29167C14.7666 9.29167 13.5528 10.1769 13.2087 11.375M16.2109 19.7083H16.2264M30.2174 14.5C30.2174 21.4036 23.9721 27 16.2681 27C13.1119 27 2.31996 27 2.31996 27C2.31996 27 4.73658 21.8002 3.76943 20.0567C2.84094 18.3828 2.31885 16.4961 2.31885 14.5C2.31885 7.59645 8.56414 2 16.2681 2C23.9721 2 30.2174 7.59645 30.2174 14.5Z" stroke="black" stroke-width="3" stroke-linecap="round" stroke-linejoin="round"/>
</svg>
