<svg width="47" height="41" viewBox="0 0 47 41" fill="none" xmlns="http://www.w3.org/2000/svg">
<path fill-rule="evenodd" clip-rule="evenodd" d="M23.0897 26.4792C26.7896 26.4792 29.789 23.8022 29.789 20.5C29.789 17.1978 26.7896 14.5208 23.0897 14.5208C19.3898 14.5208 16.3904 17.1978 16.3904 20.5C16.3904 23.8022 19.3898 26.4792 23.0897 26.4792ZM23.0897 23.0529C21.51 23.0529 20.2293 21.9099 20.2293 20.5C20.2293 19.0901 21.51 17.9471 23.0897 17.9471C24.6694 17.9471 25.9501 19.0901 25.9501 20.5C25.9501 21.9099 24.6694 23.0529 23.0897 23.0529Z" fill="black"/>
<path fill-rule="evenodd" clip-rule="evenodd" d="M23.1004 8.54167C13.8913 8.54167 7.62827 12.9988 4.32189 16.1946C1.77251 18.6588 1.77251 22.3412 4.32189 24.8053C7.62827 28.0013 13.8913 32.4583 23.1004 32.4583C32.3094 32.4583 38.5725 28.0013 41.8788 24.8053C44.4282 22.3412 44.4282 18.6588 41.8788 16.1946C38.5725 12.9988 32.3094 8.54167 23.1004 8.54167ZM7.1344 18.5125C10.0623 15.6825 15.3807 11.9583 23.1004 11.9583C30.82 11.9583 36.1385 15.6825 39.0663 18.5125C40.2614 19.6677 40.2614 21.3323 39.0663 22.4875C36.1385 25.3175 30.82 29.0417 23.1004 29.0417C15.3807 29.0417 10.0623 25.3175 7.1344 22.4875C5.93921 21.3323 5.93921 19.6677 7.1344 18.5125Z" fill="black"/>
</svg>
