<svg width="35" height="35" viewBox="0 0 35 35" fill="none" xmlns="http://www.w3.org/2000/svg">
<path d="M21.5067 24.286L23.7971 21.9945C24.1497 21.6377 24.5694 21.3541 25.0319 21.1608C25.4947 20.9675 25.991 20.8681 26.4923 20.8681C26.9938 20.8681 27.4901 20.9675 27.9529 21.1608C28.4154 21.3541 28.8351 21.6377 29.1875 21.9945L31.8741 24.6823C32.2307 25.0348 32.514 25.4543 32.7072 25.9172C32.9005 26.38 33 26.8768 33 27.3784C33 27.8801 32.9005 28.3768 32.7072 28.8397C32.514 29.3024 32.2307 29.722 31.8741 30.0745L30.6513 31.3149C29.8088 32.166 28.7192 32.7294 27.5378 32.9242C26.3564 33.1191 25.1437 32.9359 24.0727 32.4005C14.8562 27.6542 7.34931 20.1502 2.59745 10.9339C2.06174 9.86131 1.87985 8.64638 2.07789 7.46383C2.27594 6.28126 2.84374 5.19187 3.69967 4.35252L4.92233 3.11212C5.63862 2.39986 6.60756 2 7.6175 2C8.62744 2 9.59638 2.39986 10.3127 3.11212L13.0165 5.81709C13.7285 6.5337 14.1281 7.5029 14.1281 8.51327C14.1281 9.52362 13.7285 10.4928 13.0165 11.2094L10.726 13.501C12.2405 15.5503 13.904 17.4849 15.703 19.2894C17.4916 21.0819 19.4146 22.7351 21.455 24.2343L21.5067 24.286Z" stroke="black" stroke-width="3" stroke-linecap="round" stroke-linejoin="round"/>
</svg>
