<svg width="35" height="35" viewBox="0 0 35 35" fill="none" xmlns="http://www.w3.org/2000/svg">
<path fill-rule="evenodd" clip-rule="evenodd" d="M17.4919 22.6042C20.3108 22.6042 22.596 20.319 22.596 17.5C22.596 14.681 20.3108 12.3958 17.4919 12.3958C14.6729 12.3958 12.3877 14.681 12.3877 17.5C12.3877 20.319 14.6729 22.6042 17.4919 22.6042ZM17.4919 19.6793C16.2883 19.6793 15.3125 18.7036 15.3125 17.5C15.3125 16.2964 16.2883 15.3207 17.4919 15.3207C18.6954 15.3207 19.6712 16.2964 19.6712 17.5C19.6712 18.7036 18.6954 19.6793 17.4919 19.6793Z" fill="black"/>
<path fill-rule="evenodd" clip-rule="evenodd" d="M17.4999 7.29167C10.4835 7.29167 5.71174 11.0965 3.19261 13.8247C1.25025 15.9282 1.25025 19.0718 3.19261 21.1753C5.71174 23.9035 10.4835 27.7083 17.4999 27.7083C24.5162 27.7083 29.288 23.9035 31.8072 21.1753C33.7495 19.0718 33.7495 15.9282 31.8072 13.8247C29.288 11.0965 24.5162 7.29167 17.4999 7.29167ZM5.33546 15.8034C7.56618 13.3875 11.6183 10.2083 17.4999 10.2083C23.3815 10.2083 27.4336 13.3875 29.6643 15.8034C30.5749 16.7895 30.5749 18.2105 29.6643 19.1966C27.4336 21.6125 23.3815 24.7917 17.4999 24.7917C11.6183 24.7917 7.56618 21.6125 5.33546 19.1966C4.42485 18.2105 4.42485 16.7895 5.33546 15.8034Z" fill="black"/>
</svg>
