<svg width="144" height="144" viewBox="0 0 144 144" fill="none" xmlns="http://www.w3.org/2000/svg">
<g id="asset (4) 1">
<path id="Vector" d="M5.53837 36.9231C9.40003 36.9231 11.0487 38.022 13.5438 39.6853C16.6328 41.7446 20.4768 44.3079 27.6919 44.3079C34.9072 44.3079 38.7514 41.7448 41.8401 39.6853C44.3345 38.022 45.983 36.9236 49.8435 36.9236C53.7049 36.9236 55.3529 38.0224 57.8479 39.6853C60.9374 41.745 64.7814 44.3079 71.9974 44.3079C79.2123 44.3079 83.0572 41.7448 86.1466 39.6853C88.641 38.0222 90.2895 36.9236 94.1509 36.9236C98.013 36.9236 99.662 38.0224 102.157 39.6857C105.246 41.745 109.091 44.3083 116.307 44.3083C123.522 44.3083 127.366 41.7453 130.455 39.6857C132.951 38.0224 134.599 36.9236 138.462 36.9236C141.52 36.9236 144 34.4438 144 31.3852C144 28.3264 141.52 25.8464 138.462 25.8464C131.245 25.8464 127.401 28.4095 124.311 30.469C121.816 32.1323 120.168 33.2307 116.307 33.2307C112.445 33.2307 110.796 32.1318 108.301 30.4685C105.212 28.4092 101.367 25.8459 94.1509 25.8459C86.9356 25.8459 83.0911 28.409 80.0017 30.4685C77.5071 32.1318 75.8588 33.2307 71.9974 33.2307C68.1353 33.2307 66.487 32.1318 63.992 30.4685C60.903 28.4092 57.0581 25.8459 49.8432 25.8459C42.6279 25.8459 38.7837 28.409 35.6949 30.4685C33.2006 32.1318 31.5521 33.2302 27.6916 33.2302C23.8311 33.2302 22.1824 32.1314 19.6883 30.4685C16.5989 28.4088 12.7544 25.8455 5.53837 25.8455C2.47954 25.8462 3.8147e-06 28.3259 3.8147e-06 31.3848C3.8147e-06 34.4436 2.47954 36.9231 5.53837 36.9231ZM138.462 62.7693C131.246 62.7693 127.401 65.3324 124.312 67.3919C121.817 69.0552 120.168 70.1536 116.307 70.1536C112.445 70.1536 110.797 69.0548 108.302 67.3915C105.212 65.3322 101.368 62.7689 94.1514 62.7689C86.936 62.7689 83.0916 65.3319 80.0021 67.3915C77.5075 69.0545 75.8593 70.1531 71.9979 70.1531C68.1357 70.1531 66.4875 69.0543 63.9924 67.391C60.9035 65.3317 57.0585 62.7684 49.8437 62.7684C42.6284 62.7684 38.7841 65.3315 35.6954 67.391C33.201 69.0543 31.5526 70.1527 27.6921 70.1527C23.8316 70.1527 22.1829 69.0538 19.6888 67.391C16.5994 65.3317 12.7549 62.7684 5.53885 62.7684C2.47954 62.7693 3.8147e-06 65.2491 3.8147e-06 68.3077C3.8147e-06 71.3666 2.47954 73.8461 5.53837 73.8461C9.40003 73.8461 11.0487 74.9449 13.5438 76.6082C16.6328 78.6675 20.4768 81.2308 27.6919 81.2308C34.9072 81.2308 38.7514 78.6678 41.8401 76.6082C44.3345 74.9449 45.983 73.8466 49.8435 73.8466C53.7049 73.8466 55.3529 74.9454 57.8479 76.6082C60.9374 78.668 64.7814 81.2308 71.9974 81.2308C79.2123 81.2308 83.0572 78.6678 86.1466 76.6082C88.641 74.9449 90.2895 73.8461 94.1509 73.8461C98.013 73.8461 99.662 74.9449 102.157 76.6082C105.246 78.6675 109.091 81.2308 116.307 81.2308C123.522 81.2308 127.366 78.668 130.455 76.6082C132.951 74.9449 134.599 73.8461 138.462 73.8461C141.52 73.8461 144 71.3663 144 68.3077C144 65.2491 141.521 62.7693 138.462 62.7693ZM138.462 99.6925C131.246 99.6925 127.401 102.256 124.312 104.315C121.817 105.978 120.168 107.077 116.307 107.077C112.445 107.077 110.797 105.978 108.302 104.315C105.212 102.256 101.368 99.6925 94.1514 99.6925C86.936 99.6925 83.0916 102.256 80.0021 104.315C77.5075 105.978 75.8593 107.077 71.9979 107.077C68.1357 107.077 66.4875 105.978 63.9924 104.315C60.9035 102.256 57.0585 99.6925 49.8437 99.6925C42.6284 99.6925 38.7841 102.256 35.6954 104.315C33.201 105.978 31.5526 107.077 27.6921 107.077C23.8316 107.077 22.1829 105.978 19.6888 104.315C16.5994 102.256 12.7549 99.6925 5.53885 99.6925C2.47954 99.6925 3.8147e-06 102.172 3.8147e-06 105.231C3.8147e-06 108.29 2.47954 110.77 5.53837 110.77C9.40003 110.77 11.0487 111.869 13.5438 113.532C16.6328 115.591 20.4768 118.154 27.6919 118.154C34.9072 118.154 38.7514 115.591 41.8401 113.532C44.3345 111.869 45.983 110.77 49.8435 110.77C53.7049 110.77 55.3529 111.869 57.8479 113.532C60.9374 115.591 64.7814 118.154 71.9974 118.154C79.2123 118.154 83.0572 115.591 86.1466 113.532C88.641 111.869 90.2895 110.77 94.1509 110.77C98.013 110.77 99.662 111.869 102.157 113.532C105.246 115.591 109.091 118.154 116.307 118.154C123.522 118.154 127.366 115.591 130.455 113.532C132.951 111.869 134.599 110.77 138.462 110.77C141.52 110.77 144 108.29 144 105.231C144 102.172 141.521 99.6925 138.462 99.6925Z" fill="url(#paint0_linear_54_208)"/>
</g>
<defs>
<linearGradient id="paint0_linear_54_208" x1="3.8147e-06" y1="25.8455" x2="144" y2="25.8455" gradientUnits="userSpaceOnUse">
<stop stop-color="#FCEABB"/>
<stop offset="1" stop-color="#F8B500"/>
</linearGradient>
</defs>
</svg>
