<svg width="35" height="35" viewBox="0 0 35 35" fill="none" xmlns="http://www.w3.org/2000/svg">
<path fill-rule="evenodd" clip-rule="evenodd" d="M17.4918 22.6042C20.3108 22.6042 22.596 20.319 22.596 17.5C22.596 14.681 20.3108 12.3958 17.4918 12.3958C14.6729 12.3958 12.3876 14.681 12.3876 17.5C12.3876 20.319 14.6729 22.6042 17.4918 22.6042ZM17.4918 19.6793C16.2883 19.6793 15.3125 18.7036 15.3125 17.5C15.3125 16.2964 16.2883 15.3207 17.4918 15.3207C18.6954 15.3207 19.6711 16.2964 19.6711 17.5C19.6711 18.7036 18.6954 19.6793 17.4918 19.6793Z" fill="white"/>
<path fill-rule="evenodd" clip-rule="evenodd" d="M17.5 7.29167C10.4837 7.29167 5.71186 11.0965 3.19274 13.8247C1.25037 15.9282 1.25037 19.0718 3.19274 21.1753C5.71186 23.9035 10.4837 27.7083 17.5 27.7083C24.5163 27.7083 29.2882 23.9035 31.8073 21.1753C33.7496 19.0718 33.7496 15.9282 31.8073 13.8247C29.2882 11.0965 24.5163 7.29167 17.5 7.29167ZM5.33558 15.8034C7.56631 13.3875 11.6184 10.2083 17.5 10.2083C23.3816 10.2083 27.4337 13.3875 29.6644 15.8034C30.575 16.7895 30.575 18.2105 29.6644 19.1966C27.4337 21.6125 23.3816 24.7917 17.5 24.7917C11.6184 24.7917 7.56631 21.6125 5.33558 19.1966C4.42497 18.2105 4.42497 16.7895 5.33558 15.8034Z" fill="white"/>
</svg>
