<svg width="225" height="221" viewBox="0 0 225 221" fill="none" xmlns="http://www.w3.org/2000/svg">
<path d="M195.526 130.622L178.068 126.734V119.604C181.956 117.929 185.537 115.548 188.631 112.511C193.486 107.742 196.715 101.802 198.051 95.34C203.799 94.6144 208.257 89.7808 208.257 83.9403C208.257 80.8834 207.027 77.9884 204.855 75.8436V49.4829C204.855 33.0995 191.286 19.7713 174.606 19.7713V19.8594C172.613 17.4797 169.596 15.9569 166.221 15.9509H166.17C166.131 15.9509 166.093 15.9509 166.054 15.9509C154.89 15.9509 144.303 20.3005 136.232 28.206C127.961 36.3083 123.405 47.0199 123.405 58.3682V75.9834C121.321 78.1136 120.14 80.959 120.14 83.9407C120.14 85.9984 120.696 87.9295 121.663 89.6017C118.623 88.8153 115.459 88.4095 112.229 88.4272C106.209 88.4713 100.537 90.0157 95.5652 92.6931V88.4194C95.5652 75.2259 86.9651 63.6994 74.1652 59.7374L72.8442 63.8544C83.8055 67.247 91.1707 77.1191 91.1707 88.4194V95.4876C83.6688 101.062 78.4314 109.487 77.0981 119.107C72.3019 122.224 66.7362 123.87 60.9377 123.87C53.0978 123.87 45.7247 120.87 40.1766 115.425C34.6315 109.975 31.5778 102.732 31.5778 95.0318V89.5236C31.5778 80.0862 37.1659 71.4275 45.8363 67.3895L46.0819 67.2786C56.4412 62.5922 63.1349 52.3213 63.1349 41.1125V37.4198H58.7404V41.1125C58.7404 50.5495 53.1611 59.2039 44.4999 63.2401L44.2393 63.358C33.8783 68.0495 27.1833 78.3199 27.1833 89.5236V123.148C27.1833 127.74 27.8811 132.271 29.2518 136.651C22.4319 139.16 16.806 144.048 13.4407 150.406C10.1958 146.504 8.3751 141.581 8.3751 136.495C8.3751 129.674 11.5185 123.355 17.0011 119.155C20.2021 116.698 22.0377 113.018 22.0377 109.06V64.851C22.0377 54.6108 26.0978 44.9834 33.4701 37.7422C40.7641 30.5822 50.4563 26.5956 60.7623 26.517C71.0873 26.4367 80.8589 30.3936 88.3129 37.6581C95.9212 45.0719 100.111 54.9013 100.111 65.3344V84.072H104.505V65.3344C104.505 53.7419 99.8543 42.8244 91.4085 34.5939C83.116 26.5131 72.2281 22.1194 60.7276 22.201C49.2618 22.2891 38.4781 26.7242 30.3627 34.6901C22.1603 42.7467 17.6432 53.4583 17.6432 64.8514V109.06C17.6432 111.681 16.4232 114.121 14.2972 115.753C7.74097 120.774 3.98057 128.335 3.98057 136.495C3.98057 143.333 6.72539 149.93 11.5545 154.816C10.5917 157.708 10.1021 160.723 10.1021 163.8V205.049H64.0099V200.732H14.4954V163.8C14.4954 160.77 15.0495 157.811 16.1438 155.004C19.1487 147.269 25.8504 141.558 34.0708 139.726L52.9427 135.525V127.25C55.5297 127.865 58.2078 128.186 60.9363 128.186C63.755 128.186 66.5253 127.842 69.2024 127.181V135.525L76.7549 137.207V147.555C76.7549 156.649 84.2871 164.047 93.5451 164.047H94.1559V159.73H93.5451C86.7103 159.73 81.1494 154.269 81.1494 147.555V123.948C81.1494 106.866 95.106 92.8684 112.261 92.7432C120.701 92.6789 128.609 95.8558 134.583 101.68C140.558 107.505 143.848 115.267 143.848 123.534V147.555C143.848 154.269 138.288 159.73 131.453 159.73V164.047C140.711 164.047 148.243 156.649 148.243 147.555V131.687L150.599 131.161V150.82C150.599 152.059 151.401 153.161 152.596 153.561C152.909 153.666 153.229 153.716 153.547 153.716C154.443 153.716 155.312 153.314 155.882 152.59L164.334 141.032L172.741 152.53L172.786 152.591C173.557 153.571 174.877 153.961 176.072 153.561C177.266 153.161 178.069 152.06 178.069 150.82V131.16L194.555 134.832C207.551 137.723 216.627 148.885 216.627 161.975V200.732H197.951V164.666H193.556V200.732H158.243V205.049H221.021V161.975C221.021 154.711 218.48 147.585 213.865 141.911C209.25 136.236 202.737 132.227 195.526 130.622ZM37.0683 118.477C37.1905 118.597 37.3188 118.709 37.4432 118.827V123.031C37.4432 126.818 37.9248 130.576 38.8622 134.234L33.4666 135.435C32.2137 131.45 31.5769 127.327 31.5769 123.148V111.398C33.0596 113.956 34.8926 116.338 37.0683 118.477ZM48.5486 132.078L43.1481 133.28C42.2811 129.935 41.8377 126.496 41.8377 123.031V122.37C43.9422 123.794 46.1914 124.969 48.5486 125.882V132.078ZM73.5974 132.078V125.778C74.6732 125.35 75.7257 124.861 76.7553 124.322V132.782L73.5974 132.078ZM198.662 90.8138C198.713 90.051 198.749 89.2853 198.749 88.514V87.6144C200.948 86.8107 202.757 85.2219 203.82 83.1901C203.846 83.4383 203.862 83.6887 203.862 83.9407C203.862 87.1798 201.667 89.922 198.662 90.8138ZM200.461 49.4837V79.0088C200.461 80.4747 199.795 81.7882 198.749 82.6821V80.2744C198.749 76.6538 197.654 73.1592 195.58 70.1649C194.806 69.0522 194.203 67.8224 193.791 66.5141C193.384 65.2101 193.177 63.8582 193.177 62.4951V58.0233C193.177 51.2591 187.574 45.7561 180.704 45.7561L175.647 45.7194C176.593 43.0674 177.079 40.2898 177.079 37.4211V26.6301C177.079 25.7888 176.977 24.9713 176.788 24.1857C190.026 25.2782 200.461 36.203 200.461 49.4837ZM127.799 58.3686C127.799 48.1754 131.896 38.549 139.335 31.2629C146.576 24.1697 156.06 20.2677 166.059 20.2677C166.094 20.2677 166.129 20.2677 166.163 20.2677H166.216C169.783 20.2742 172.684 23.1282 172.684 26.6301V37.4211C172.684 40.7478 171.91 43.9285 170.384 46.8736C166.733 53.9081 159.478 58.278 151.45 58.278C145.621 58.278 140.145 60.5065 136.032 64.5514C131.913 68.5972 129.645 73.9742 129.645 79.6917V82.3001C128.495 81.2348 127.799 79.7288 127.799 78.0817V58.3686ZM124.626 82.8668C125.713 84.861 127.464 86.4684 129.645 87.3805V88.514C129.645 89.2827 129.674 90.0489 129.726 90.8116C126.726 89.9168 124.534 87.1768 124.534 83.9407C124.534 83.5777 124.572 83.2208 124.626 82.8668ZM135.108 96.3418C134.402 93.8111 134.039 91.182 134.039 88.5144V79.6917C134.039 75.1271 135.85 70.834 139.14 67.6027C142.425 64.3732 146.796 62.5944 151.45 62.5944C160.677 62.5944 169.055 57.8097 173.638 50.0216L180.687 50.0725C185.15 50.0725 188.782 53.6391 188.782 58.0233V62.4951C188.782 64.2882 189.054 66.0674 189.592 67.7857C190.135 69.5106 190.929 71.1305 191.949 72.5964C193.522 74.8681 194.354 77.5231 194.354 80.2744V88.5144C194.354 96.4277 191.218 103.866 185.524 109.459C179.824 115.053 172.251 118.134 164.199 118.134C160.533 118.134 156.957 117.496 153.568 116.238C151.017 115.297 148.616 114.017 146.418 112.436C144.675 107.28 141.721 102.558 137.679 98.617C136.854 97.8128 135.996 97.0557 135.108 96.3418ZM148.243 127.261V123.535C148.243 121.807 148.114 120.1 147.867 118.421C148.757 118.89 149.668 119.323 150.598 119.713V126.735L148.243 127.261ZM154.994 146.407V132.891L161.32 137.756L154.994 146.407ZM164.334 134.592L154.992 127.408V121.231C157.973 122.04 161.058 122.45 164.199 122.45C167.45 122.45 170.629 122.002 173.674 121.155V127.408L164.334 134.592ZM173.674 146.407L167.348 137.756L173.674 132.891V146.407Z" fill="black"/>
<path d="M121.525 140.01C122.69 140.01 123.634 139.083 123.634 137.939V136.516C123.634 135.372 122.69 134.444 121.525 134.444C120.361 134.444 119.417 135.372 119.417 136.516V137.939C119.417 139.083 120.361 140.01 121.525 140.01Z" fill="black"/>
<path d="M104.083 140.01C105.247 140.01 106.192 139.083 106.192 137.939V136.516C106.192 135.372 105.248 134.444 104.083 134.444C102.918 134.444 101.974 135.372 101.974 136.516V137.939C101.974 139.083 102.918 140.01 104.083 140.01Z" fill="black"/>
<path d="M122.607 147.868L118.643 146.006C117.552 148.246 115.215 149.694 112.69 149.694C110.163 149.694 107.827 148.247 106.739 146.008L102.773 147.867C104.587 151.599 108.479 154.011 112.69 154.011C116.898 154.011 120.79 151.6 122.607 147.868Z" fill="black"/>
<path d="M85.892 115.979L93.7316 123.68L96.839 120.627L88.9994 112.927L85.892 115.979Z" fill="black"/>
<path d="M101.565 115.984L93.7252 108.283L90.6178 111.335L98.4574 119.036L101.565 115.984Z" fill="black"/>
<path d="M154.223 190.247C154.223 179.001 146.425 169.412 135.259 166.926L123.065 164.212V160.862C133.069 156.926 140.56 147.558 141.908 136.061C142.22 133.402 141.071 130.741 138.909 129.116C136.662 127.427 132.796 123.798 132.144 118.465C131.901 116.475 130.582 114.817 128.705 114.138L128.497 114.063C126.322 113.276 123.908 113.951 122.491 115.743C114.415 125.956 98.9209 128.972 90.4034 129.86C88.207 130.09 86.2031 131.23 84.9063 132.989C83.6112 134.746 83.1331 136.967 83.5954 139.084C85.0439 145.717 88.6794 151.743 93.8329 156.053C96.2758 158.096 99.018 159.706 101.932 160.851V164.212L89.7381 166.926C78.5729 169.412 70.7752 179.002 70.7752 190.247V205.049H154.223V190.247H154.223ZM87.8924 138.179C87.688 137.243 87.892 136.299 88.4659 135.521C89.0416 134.741 89.895 134.254 90.8684 134.153C100.08 133.191 116.888 129.866 125.962 118.39C126.133 118.176 126.392 118.057 126.66 118.057C126.766 118.057 126.874 118.075 126.979 118.113L127.186 118.188C127.507 118.305 127.735 118.608 127.781 118.979C128.625 125.885 133.443 130.442 136.239 132.544C137.179 133.251 137.678 134.409 137.543 135.567C136.005 148.67 125.239 158.551 112.5 158.551C100.63 158.55 90.512 150.173 87.8924 138.179ZM112.499 162.867C114.612 162.867 116.675 162.629 118.671 162.192V165.002C116.957 166.462 114.797 167.26 112.499 167.26C110.201 167.26 108.041 166.461 106.327 165.002V162.192C108.346 162.636 110.415 162.867 112.499 162.867ZM103.478 168.293C105.986 170.418 109.143 171.577 112.499 171.577C115.855 171.577 119.012 170.417 121.519 168.293L129.255 170.016V182.45H96.3527V169.88L103.478 168.293ZM90.7097 171.136L91.9586 170.858V186.766H133.65V170.994L134.288 171.136C135.789 171.469 137.213 171.963 138.549 172.591V200.732H86.8315V172.415C88.0563 171.872 89.3518 171.438 90.7097 171.136ZM75.1698 190.247C75.1698 184.183 77.9375 178.707 82.437 175.09V200.733H75.1698V190.247ZM149.828 200.733H142.944V175.41C147.215 179.026 149.828 184.358 149.828 190.247V200.733Z" fill="black"/>
<path d="M61.0734 109.482C59.3912 109.482 57.836 108.519 57.1118 107.028L53.1457 108.887C54.595 111.87 57.7072 113.799 61.0734 113.799C64.437 113.799 67.5483 111.871 69.0003 108.889L65.036 107.027C64.3096 108.518 62.7543 109.482 61.0734 109.482Z" fill="black"/>
<path d="M72.9721 152.077H23.4466V156.394H72.9721V152.077Z" fill="black"/>
<path d="M76.8248 88.1976C78.1646 88.1976 79.2549 89.2685 79.2549 90.5845H83.6495C83.6495 86.8884 80.5878 83.8812 76.8248 83.8812C73.0617 83.8812 70 86.8884 70 90.5845H74.3946C74.3946 89.2685 75.4849 88.1976 76.8248 88.1976Z" fill="black"/>
<path d="M38.497 90.5845H42.8915C42.8915 89.2685 43.9818 88.1976 45.3217 88.1976C46.662 88.1976 47.7519 89.2685 47.7519 90.5845H52.1464C52.1464 86.8884 49.0847 83.8812 45.3217 83.8812C41.5586 83.8812 38.497 86.8884 38.497 90.5845Z" fill="black"/>
<path d="M164.337 107.538C167.765 107.538 170.935 105.574 172.415 102.535L168.451 100.673C167.697 102.221 166.082 103.222 164.338 103.222C162.591 103.222 160.978 102.222 160.226 100.675L156.26 102.534C157.736 105.573 160.907 107.538 164.337 107.538Z" fill="black"/>
<path d="M180.089 82.645C181.43 82.645 182.519 83.7154 182.519 85.0319H186.914C186.914 81.3358 183.852 78.3286 180.089 78.3286C176.326 78.3286 173.264 81.3358 173.264 85.0319H177.659C177.659 83.7159 178.749 82.645 180.089 82.645Z" fill="black"/>
<path d="M148.586 82.645C149.926 82.645 151.016 83.7154 151.016 85.0319H155.41C155.41 81.3358 152.349 78.3286 148.586 78.3286C144.823 78.3286 141.761 81.3358 141.761 85.0319H146.156C146.156 83.7159 147.246 82.645 148.586 82.645Z" fill="black"/>
<path d="M166.531 151.56H162.136V195.857H166.531V151.56Z" fill="black"/>
</svg>
