<svg width="29" height="29" viewBox="0 0 29 29" fill="none" xmlns="http://www.w3.org/2000/svg">
<path d="M14.4487 15.5417C15.8376 14.1528 17.2265 13.6036 17.2265 12.0695C17.2265 10.5353 15.9829 9.29167 14.4487 9.29167C13.1544 9.29167 12.0668 10.1769 11.7585 11.375M14.4487 19.7083H14.4626M27 14.5C27 21.4036 21.4036 27 14.5 27C11.6717 27 2.001 27 2.001 27C2.001 27 4.16654 21.8002 3.29988 20.0567C2.46785 18.3828 2 16.4961 2 14.5C2 7.59645 7.59643 2 14.5 2C21.4036 2 27 7.59645 27 14.5Z" stroke="white" stroke-width="3" stroke-linecap="round" stroke-linejoin="round"/>
</svg>
