<svg width="130" height="114" viewBox="0 0 130 114" fill="none" xmlns="http://www.w3.org/2000/svg">
<path d="M114.729 68.6843L104.273 66.3556V62.0848C106.602 61.0815 108.746 59.6556 110.599 57.8363C113.507 54.9799 115.441 51.4222 116.242 47.5514C119.685 47.1168 122.355 44.2217 122.355 40.7234C122.355 38.8924 121.618 37.1584 120.317 35.8737V20.0845C120.317 10.2715 112.189 2.28832 102.199 2.28832V2.34106C101.005 0.915742 99.1977 0.00361953 97.1768 0H97.146C97.1228 0 97.0996 0 97.0762 0C90.3897 0 84.0483 2.60529 79.2143 7.34042C74.26 12.1934 71.5315 18.6093 71.5315 25.4065V35.9575C70.283 37.2334 69.5755 38.9377 69.5755 40.7236C69.5755 41.9561 69.9085 43.1128 70.4881 44.1144C68.6671 43.6433 66.7717 43.4003 64.8371 43.4109C61.2312 43.4373 57.8339 44.3623 54.8561 45.966V43.4062C54.8561 35.5038 49.705 28.5997 42.0382 26.2266L41.247 28.6926C47.8124 30.7247 52.2239 36.6377 52.2239 43.4062V47.6398C47.7306 50.9786 44.5935 56.0247 43.7949 61.7867C40.9222 63.6539 37.5885 64.6397 34.1154 64.6397C29.4196 64.6397 25.0033 62.8431 21.6802 59.5817C18.3589 56.3171 16.5298 51.9791 16.5298 47.3668V44.0676C16.5298 38.4149 19.8769 33.2286 25.0702 30.81L25.2173 30.7436C31.4221 27.9366 35.4315 21.7847 35.4315 15.071V12.8592H32.7993V15.071C32.7993 20.7234 29.4575 25.9071 24.2697 28.3247L24.1136 28.3952C17.9077 31.2053 13.8976 37.357 13.8976 44.0676V64.2077C13.8976 66.9578 14.3156 69.6719 15.1366 72.295C11.0517 73.7979 7.682 76.7258 5.66628 80.5339C3.72269 78.1972 2.63218 75.248 2.63218 72.2017C2.63218 68.1163 4.51497 64.3313 7.79887 61.816C9.71615 60.3441 10.8156 58.1398 10.8156 55.769V29.2895C10.8156 23.156 13.2475 17.3895 17.6632 13.0523C22.0321 8.76367 27.8374 6.37581 34.0103 6.32876C40.1946 6.28067 46.0475 8.65069 50.5122 13.0019C55.0693 17.4425 57.5788 23.33 57.5788 29.5791V40.8022H60.211V29.5791C60.211 22.6355 57.4251 16.0963 52.3663 11.1665C47.3994 6.32643 40.878 3.69477 33.9895 3.74363C27.1219 3.79637 20.6628 6.45285 15.802 11.2242C10.889 16.0498 8.18343 22.4657 8.18343 29.2898V55.7693C8.18343 57.3394 7.45274 58.8006 6.1793 59.7782C2.25235 62.7857 0 67.314 0 72.2019C0 76.2975 1.64406 80.2492 4.53655 83.1753C3.95985 84.9075 3.66662 86.7137 3.66662 88.5568V113.263H35.9555V110.678H6.29801V88.5568C6.29801 86.7416 6.62992 84.9693 7.28534 83.2883C9.08522 78.6553 13.0993 75.2343 18.023 74.1371L29.3266 71.6208V66.6646C30.8762 67.0327 32.4803 67.2248 34.1146 67.2248C35.8029 67.2248 37.4622 67.019 39.0657 66.623V71.6208L43.5894 72.6283V78.8265C43.5894 84.2733 48.1009 88.7044 53.6461 88.7044H54.012V86.1191H53.6461C49.5523 86.1191 46.2215 82.8478 46.2215 78.8265V64.6868C46.2215 54.4554 54.5811 46.071 64.8563 45.996C69.9116 45.9575 74.6485 47.8603 78.2267 51.3488C81.8054 54.8378 83.7761 59.4868 83.7761 64.4388V78.8265C83.7761 82.8478 80.4453 86.1191 76.3515 86.1191V88.7044C81.8967 88.7044 86.4083 84.2733 86.4083 78.8265V69.3218L87.8196 69.0069V80.7821C87.8196 81.5243 88.3 82.1844 89.0157 82.4238C89.2029 82.4866 89.395 82.5168 89.5853 82.5168C90.122 82.5168 90.6426 82.2756 90.9838 81.8421L96.0462 74.9194L101.082 81.8064L101.109 81.8426C101.571 82.43 102.361 82.6634 103.077 82.424C103.792 82.1844 104.273 81.5246 104.273 80.7823V69.0062L114.148 71.2055C121.932 72.9375 127.368 79.623 127.368 87.4635V110.678H116.182V89.0752H113.549V110.678H92.398V113.263H130V87.4635C130 83.1128 128.478 78.8443 125.714 75.4456C122.949 72.0466 119.048 69.6453 114.729 68.6843ZM19.8184 61.4098C19.8916 61.4817 19.9685 61.5486 20.043 61.6195V64.1374C20.043 66.4058 20.3315 68.6564 20.8929 70.8477L17.6611 71.567C16.9107 69.1802 16.5293 66.7103 16.5293 64.2077V57.1695C17.4174 58.7019 18.5152 60.1287 19.8184 61.4098ZM26.6947 69.5563L23.4601 70.2764C22.9407 68.2724 22.6751 66.2129 22.6751 64.1374V63.7413C23.9357 64.5945 25.2828 65.2979 26.6947 65.845V69.5563ZM41.6981 69.5563V65.7827C42.3425 65.5262 42.9729 65.2333 43.5896 64.9109V69.9777L41.6981 69.5563ZM116.607 44.8403C116.638 44.3835 116.66 43.9249 116.66 43.4628V42.9241C117.977 42.4427 119.06 41.491 119.697 40.274C119.713 40.4227 119.722 40.5727 119.722 40.7236C119.722 42.6637 118.407 44.3062 116.607 44.8403ZM117.685 20.0851V37.7696C117.685 38.6476 117.286 39.4343 116.66 39.9697V38.5276C116.66 36.359 116.004 34.2659 114.762 32.4724C114.298 31.8059 113.937 31.0693 113.69 30.2857C113.446 29.5046 113.322 28.6949 113.322 27.8784V25.2C113.322 21.1484 109.966 17.8523 105.851 17.8523L102.823 17.8303C103.389 16.2419 103.68 14.5782 103.68 12.8599V6.39649C103.68 5.8926 103.619 5.40293 103.506 4.93239C111.435 5.58675 117.685 12.1304 117.685 20.0851ZM74.1631 25.4068C74.1631 19.3014 76.6168 13.5355 81.0726 9.17138C85.4099 4.92283 91.0907 2.58564 97.0796 2.58564C97.1002 2.58564 97.1212 2.58564 97.1418 2.58564H97.1736C99.3099 2.58952 101.048 4.29897 101.048 6.39649V12.8599C101.048 14.8525 100.584 16.7577 99.6702 18.5217C97.4831 22.7351 93.1377 25.3525 88.3295 25.3525C84.8379 25.3525 81.558 26.6873 79.0942 29.1101C76.6274 31.5334 75.2686 34.754 75.2686 38.1786V39.7409C74.5798 39.1029 74.1631 38.2008 74.1631 37.2142V25.4068ZM72.2627 40.0804C72.9139 41.2748 73.9626 42.2376 75.2689 42.7839V43.4628C75.2689 43.9233 75.286 44.3822 75.3173 44.839C73.5201 44.3031 72.2077 42.6619 72.2077 40.7236C72.2074 40.5062 72.2301 40.2924 72.2627 40.0804ZM78.541 48.1514C78.118 46.6356 77.9008 45.0609 77.9008 43.4631V38.1786C77.9008 35.4445 78.9855 32.8731 80.956 30.9377C82.9233 29.0033 85.5418 27.9379 88.3295 27.9379C93.8557 27.9379 98.874 25.072 101.619 20.4072L105.841 20.4377C108.515 20.4377 110.69 22.574 110.69 25.2V27.8784C110.69 28.9524 110.853 30.0181 111.175 31.0473C111.5 32.0805 111.976 33.0507 112.587 33.9287C113.529 35.2894 114.027 36.8797 114.027 38.5276V43.4631C114.027 48.2029 112.149 52.6583 108.738 56.0082C105.324 59.3588 100.788 61.204 95.9654 61.204C93.7694 61.204 91.6279 60.8221 89.5977 60.0688C88.0697 59.5049 86.6317 58.7383 85.3154 57.791C84.2715 54.7033 82.5021 51.8746 80.0808 49.5142C79.587 49.0325 79.0727 48.5791 78.541 48.1514ZM86.4083 66.671V64.4391C86.4083 63.4044 86.3311 62.3816 86.183 61.3759C86.7162 61.6572 87.2619 61.9163 87.8191 62.15V66.3559L86.4083 66.671ZM90.4518 78.139V70.0434L94.2408 72.9574L90.4518 78.139ZM96.046 71.0621L90.451 66.7589V63.059C92.2364 63.5438 94.0842 63.7891 95.9654 63.7891C97.9125 63.7891 99.8168 63.5213 101.64 63.0135V66.7592L96.046 71.0621ZM101.64 78.139L97.8517 72.9571L101.64 70.0432V78.139Z" fill="white"/>
<path d="M70.4054 74.3072C71.103 74.3072 71.6686 73.7519 71.6686 73.0668V72.2144C71.6686 71.5292 71.1032 70.9736 70.4054 70.9736C69.7082 70.9736 69.1425 71.529 69.1425 72.2144V73.0668C69.1425 73.7519 69.7082 74.3072 70.4054 74.3072Z" fill="white"/>
<path d="M59.9578 74.3072C60.6553 74.3072 61.221 73.7519 61.221 73.0668V72.2144C61.221 71.5292 60.6556 70.9736 59.9578 70.9736C59.2603 70.9736 58.6946 71.529 58.6946 72.2144V73.0668C58.6946 73.7519 59.26 74.3072 59.9578 74.3072Z" fill="white"/>
<path d="M71.0532 79.0139L68.6787 77.8986C68.0254 79.2404 66.6259 80.1078 65.1134 80.1078C63.5999 80.1078 62.2007 79.2409 61.549 77.8996L59.1734 79.0131C60.2597 81.2487 62.5913 82.6932 65.1134 82.6932C67.6338 82.6932 69.9651 81.249 71.0532 79.0139Z" fill="white"/>
<path d="M49.0622 59.9137L53.7578 64.5259L55.6191 62.6978L50.9234 58.0856L49.0622 59.9137Z" fill="white"/>
<path d="M58.4496 59.9162L53.754 55.304L51.8928 57.1321L56.5884 61.7443L58.4496 59.9162Z" fill="white"/>
<path d="M89.9899 104.397C89.9899 97.6617 85.3193 91.9178 78.6315 90.4291L71.3277 88.8032V86.7967C77.3194 84.439 81.8062 78.828 82.614 71.9418C82.8009 70.349 82.1126 68.7551 80.8175 67.782C79.472 66.7706 77.1562 64.5968 76.7653 61.4023C76.6197 60.2107 75.8301 59.2176 74.7056 58.8109L74.5814 58.766C73.2782 58.2946 71.8326 58.6987 70.984 59.7719C66.1466 65.8895 56.866 67.6956 51.7644 68.2279C50.4488 68.3652 49.2485 69.0485 48.4718 70.1021C47.6961 71.1541 47.4097 72.4848 47.6866 73.7526C48.5542 77.7253 50.7318 81.335 53.8185 83.9165C55.2817 85.1399 56.9242 86.1043 58.6699 86.7899V88.8032L51.3659 90.4291C44.6783 91.918 40.0078 97.662 40.0078 104.397V113.263H89.9901V104.397H89.9899ZM50.2603 73.2102C50.1379 72.6497 50.2601 72.0845 50.6038 71.6187C50.9487 71.151 51.4598 70.8596 52.0429 70.7991C57.5602 70.2231 67.6277 68.231 73.0629 61.3578C73.165 61.229 73.32 61.1582 73.4811 61.1582C73.5446 61.1582 73.6088 61.1691 73.6717 61.1918L73.7957 61.2368C73.9883 61.3066 74.125 61.4881 74.1521 61.7104C74.658 65.8468 77.5434 68.5764 79.2182 69.8353C79.7812 70.2585 80.0805 70.9522 79.9992 71.6458C79.0784 79.494 72.6296 85.4125 64.9992 85.4125C57.89 85.4122 51.8294 80.3947 50.2603 73.2102ZM64.9989 87.9976C66.2642 87.9976 67.5003 87.8554 68.6956 87.5937V89.2768C67.669 90.1509 66.3753 90.629 64.9989 90.629C63.6226 90.629 62.3286 90.1504 61.3018 89.2766V87.5935C62.5115 87.8595 63.7508 87.9976 64.9989 87.9976ZM59.5956 91.2479C61.0978 92.5207 62.989 93.2149 64.9989 93.2146C67.0089 93.2146 68.8998 92.5202 70.4015 91.2479L75.0352 92.2795V99.7272H55.3278V92.1983L59.5956 91.2479ZM51.9478 92.9506L52.6959 92.7839V102.312H77.6676V92.8653L78.0498 92.9504C78.9487 93.1502 79.8015 93.446 80.602 93.8219V110.678H49.6249V93.7169C50.3585 93.3914 51.1345 93.1316 51.9478 92.9506ZM42.6399 104.397C42.6399 100.765 44.2977 97.4854 46.9928 95.3189V110.678H42.6399V104.397ZM87.3577 110.678H83.2341V95.5107C85.7929 97.6765 87.3577 100.87 87.3577 104.397V110.678Z" fill="white"/>
<path d="M34.1967 56.0221C33.1891 56.0221 32.2576 55.445 31.8238 54.552L29.4483 55.6656C30.3163 57.4526 32.1805 58.6075 34.1967 58.6075C36.2114 58.6075 38.075 57.4531 38.9446 55.6666L36.5701 54.5515C36.135 55.4448 35.2035 56.0221 34.1967 56.0221Z" fill="white"/>
<path d="M41.3236 81.5352H11.6595V84.1205H41.3236V81.5352Z" fill="white"/>
<path d="M43.6312 43.2733C44.4338 43.2733 45.0868 43.9147 45.0868 44.703H47.719C47.719 42.4892 45.8851 40.6879 43.6312 40.6879C41.3773 40.6879 39.5434 42.4892 39.5434 44.703H42.1756C42.1756 43.9147 42.8287 43.2733 43.6312 43.2733Z" fill="white"/>
<path d="M20.6742 44.703H23.3063C23.3063 43.9147 23.9594 43.2733 24.7619 43.2733C25.5647 43.2733 26.2175 43.9147 26.2175 44.703H28.8497C28.8497 42.4892 27.0159 40.6879 24.7619 40.6879C22.508 40.6879 20.6742 42.4892 20.6742 44.703Z" fill="white"/>
<path d="M96.0484 54.8574C98.1012 54.8574 100 53.6813 100.887 51.8609L98.5121 50.7456C98.0604 51.673 97.0933 52.2723 96.0486 52.2723C95.0026 52.2723 94.0361 51.6735 93.586 50.7466L91.2104 51.8602C92.0943 53.6808 93.9937 54.8574 96.0484 54.8574Z" fill="white"/>
<path d="M105.483 39.9475C106.286 39.9475 106.939 40.5887 106.939 41.3772H109.571C109.571 39.1634 107.737 37.3621 105.483 37.3621C103.229 37.3621 101.395 39.1634 101.395 41.3772H104.028C104.027 40.5889 104.68 39.9475 105.483 39.9475Z" fill="white"/>
<path d="M86.6138 39.9475C87.4164 39.9475 88.0692 40.5887 88.0692 41.3772H90.7013C90.7013 39.1634 88.8675 37.3621 86.6138 37.3621C84.3596 37.3621 82.5258 39.1634 82.5258 41.3772H85.158C85.158 40.5889 85.811 39.9475 86.6138 39.9475Z" fill="white"/>
<path d="M97.3621 81.2254H94.7299V107.757H97.3621V81.2254Z" fill="white"/>
</svg>
