<svg width="113" height="114" viewBox="0 0 113 114" fill="none" xmlns="http://www.w3.org/2000/svg">
<path d="M19.8617 108.729C16.4404 106.287 13.899 103.183 12.2383 99.4165C10.6041 95.8046 9.92711 91.9929 10.2078 87.9809C10.6432 83.943 12.081 80.2135 14.5226 76.7917C17.6063 72.4701 21.1665 69.5756 25.2036 68.1078C29.2404 66.6404 34.7107 65.4478 41.6148 64.5316C46.6678 63.9248 50.0937 62.3605 51.8925 59.8395L53.627 57.4087L51.1962 55.6743C48.405 53.6826 42.587 53.7436 33.7412 55.8563C24.9862 58.0339 17.1869 56.6803 10.3443 51.7978C6.92297 49.3566 4.34988 46.2981 2.62486 42.6214C1.05448 38.9188 0.409711 35.062 0.690942 31.0504C1.12591 27.013 2.56413 23.283 5.00537 19.8617C7.44662 16.4404 10.4738 13.9122 14.0861 12.2775C17.8522 10.617 21.7094 9.97171 25.6566 10.3432C29.7592 10.6878 33.5202 12.0815 36.942 14.5231C43.6944 19.3412 47.4974 26.199 48.3508 35.0964C49.2037 43.9934 51.1158 49.5019 54.0874 51.6223L56.5182 53.3568L58.0598 51.1962C59.859 48.6747 60.2236 44.9268 59.1539 39.9512L58.0712 34.8983C57.298 31.2214 56.9938 27.2679 57.159 23.0372C57.3881 18.7169 58.9801 14.4861 61.9354 10.3444C64.377 6.92259 67.4038 4.395 71.0165 2.7597C74.7831 1.09959 78.6399 0.454824 82.587 0.825404C86.6898 1.17088 90.4516 2.56449 93.8724 5.00537C97.2937 7.44661 99.7897 10.519 101.36 14.221C103.021 17.9875 103.666 21.8447 103.295 25.7918C103.014 29.804 101.653 33.5202 99.211 36.942C94.3929 43.6944 87.5351 47.4973 78.6377 48.3508C69.7407 49.2037 64.2322 51.1158 62.1118 54.0874L60.5701 56.248L62.7307 57.7896C65.7921 59.9741 71.623 59.9904 80.224 57.8391C88.7347 55.6234 96.4564 56.989 103.39 61.9363C106.811 64.3775 109.307 67.449 110.878 71.151C112.603 74.8277 113.279 78.6399 112.909 82.587C112.627 86.6 111.234 90.3614 108.729 93.8724C106.287 97.2937 103.183 99.8351 99.4169 101.495C95.8046 103.13 91.9478 103.775 87.8455 103.43C83.8979 103.059 80.2139 101.653 76.7926 99.2113C72.5607 96.1917 69.6529 92.5547 68.0691 88.2994C66.5756 84.1085 65.3962 78.715 64.5316 72.1193C63.9248 67.0663 62.3605 63.6404 59.8395 61.8416L57.6789 60.2999L55.9445 62.7307C53.5673 66.0623 53.5509 71.8932 55.895 80.2239C58.2391 88.5547 56.8735 96.2765 51.7982 103.389C49.3566 106.811 46.2529 109.352 42.4865 111.013C38.8742 112.648 35.0942 113.279 31.1466 112.908C27.1346 112.628 23.3732 111.234 19.8617 108.729Z" fill="url(#paint0_linear_152_102)"/>
<defs>
<linearGradient id="paint0_linear_152_102" x1="93.8724" y1="5.00537" x2="19.8617" y2="108.729" gradientUnits="userSpaceOnUse">
<stop stop-color="#DF99F7"/>
<stop offset="1" stop-color="#FFDBB0"/>
</linearGradient>
</defs>
</svg>
