<svg width="158" height="116" viewBox="0 0 158 116" fill="none" xmlns="http://www.w3.org/2000/svg">
<path d="M71.5 32.6699C76.9096 22.8416 70.2861 11.0377 59.2554 9.92277L55.2301 9.51573C52.2944 9.21867 49.6721 7.92782 47.4934 5.44566C39.9104 -3.19209 25.7902 -1.05909 21.1421 9.31837C20.01 11.8457 17.9628 13.8674 15.3779 15.0114L9.70713 17.5204C0.667807 21.5199 -2.39691 32.6174 3.31278 40.5539L6.91088 45.5551C7.69236 46.6415 8.26281 47.8424 8.60657 49.1242L10.3934 55.7909C12.841 64.9235 23.0479 69.8585 31.957 66.0201L32.7198 65.6915C34.987 64.7146 37.5664 64.4779 39.9816 65.0235L51.6799 67.667C63.0766 70.2424 73.1223 60.2044 70.5772 49.171L69.0967 42.7535C68.4974 40.1557 68.8794 37.4315 70.1723 35.0827L71.5 32.6699Z" fill="url(#paint0_linear_155_9)"/>
<path d="M155.131 60.8101C163.208 45.4895 153.319 27.0893 136.848 25.3514L130.838 24.7169C126.454 24.2538 122.539 22.2416 119.286 18.3724C107.963 4.90764 86.8795 8.2326 79.9391 24.4092C78.2487 28.3488 75.192 31.5003 71.3323 33.2836L62.865 37.1948C49.3679 43.4293 44.7919 60.7283 53.3173 73.0999L58.6898 80.8959C59.8567 82.5894 60.7084 84.4613 61.2217 86.4596L63.8897 96.8517C67.5444 111.088 82.7848 118.781 96.0875 112.797L97.2265 112.285C100.612 110.762 104.463 110.393 108.069 111.244L125.537 115.364C142.554 119.379 157.553 103.732 153.753 86.5324L151.543 76.5287C150.648 72.4792 151.218 68.2326 153.149 64.5713L155.131 60.8101Z" fill="url(#paint1_linear_155_9)"/>
<defs>
<linearGradient id="paint0_linear_155_9" x1="-23" y1="-12" x2="50" y2="-12" gradientUnits="userSpaceOnUse">
<stop stop-color="#F6D365"/>
<stop offset="1" stop-color="#FDA085"/>
</linearGradient>
<linearGradient id="paint1_linear_155_9" x1="49" y1="10" x2="158" y2="10" gradientUnits="userSpaceOnUse">
<stop stop-color="#F6D365"/>
<stop offset="1" stop-color="#FDA085"/>
</linearGradient>
</defs>
</svg>
