<svg width="135" height="135" viewBox="0 0 135 135" fill="none" xmlns="http://www.w3.org/2000/svg">
<path d="M114.766 91.8891C110.848 95.8065 104.496 95.8065 100.579 91.8891L83.2834 74.5929C79.3653 70.6755 79.3653 64.324 83.2834 60.4058L100.579 43.1103C104.496 39.1929 110.848 39.1929 114.766 43.1103L132.062 60.4058C135.979 64.324 135.979 70.6755 132.062 74.5929L114.766 91.8891ZM34.421 91.8891C30.5036 95.8065 24.1514 95.8065 20.2333 91.8891L2.93858 74.5929C-0.979527 70.6755 -0.979527 64.324 2.93858 60.4058L20.234 43.1103C24.1514 39.1929 30.5036 39.1929 34.421 43.1103L51.7164 60.4058C55.6345 64.324 55.6345 70.6755 51.7164 74.5929L34.421 91.8891ZM74.5938 132.061C70.6757 135.98 64.3242 135.98 60.406 132.061L43.1106 114.766C39.1932 110.848 39.1932 104.496 43.1106 100.579L60.4068 83.2833C64.3242 79.3652 70.6757 79.3652 74.5938 83.2833L91.8892 100.579C95.8066 104.496 95.8066 110.848 91.8892 114.766L74.5938 132.061ZM74.5938 51.7162C70.6757 55.6343 64.3242 55.6343 60.406 51.7162L43.1106 34.4206C39.1932 30.5025 39.1932 24.151 43.1106 20.2328L60.4068 2.93806C64.3242 -0.979352 70.6757 -0.979352 74.5938 2.93806L91.8892 20.2343C95.8066 24.1517 95.8066 30.5032 91.8892 34.4214L74.5938 51.7162Z" fill="url(#paint0_linear_152_109)"/>
<defs>
<linearGradient id="paint0_linear_152_109" x1="0" y1="0" x2="135" y2="0" gradientUnits="userSpaceOnUse">
<stop stop-color="#69EACB"/>
<stop offset="0.48" stop-color="#EACCF8"/>
<stop offset="1" stop-color="#6654F1"/>
</linearGradient>
</defs>
</svg>
