<svg width="185" height="158" viewBox="0 0 185 158" fill="none" xmlns="http://www.w3.org/2000/svg">
<g filter="url(#filter0_d_155_11)">
<path d="M134.361 34.6562C133.267 34.6562 132.391 34.6562 131.297 34.875C122.981 25.6875 111.163 20 97.8131 20C84.4633 20 72.4265 25.9062 64.1102 35.3125C62.3594 35.0937 60.3898 34.875 58.639 34.875C41.7875 34.875 28 48.6562 28 65.5C28 82.3437 41.5687 96.125 58.639 96.125C60.6086 96.125 62.3594 95.9062 64.1102 95.6875C72.4265 105.094 84.4633 111 97.8131 111C111.163 111 122.981 105.312 131.297 96.125C132.391 96.125 133.267 96.3437 134.361 96.3437C151.212 96.3437 165 82.5625 165 65.7188C165 48.4375 151.212 34.6562 134.361 34.6562Z" fill="url(#paint0_linear_155_11)"/>
</g>
<g filter="url(#filter1_d_155_11)">
<path d="M92.2013 85.9856C91.4585 85.9856 90.8642 85.9856 90.1214 86.1346C84.476 79.875 76.4537 76 67.3914 76C58.3291 76 50.1581 80.024 44.5128 86.4327C43.3243 86.2837 41.9872 86.1346 40.7987 86.1346C29.3594 86.1346 20 95.524 20 107C20 118.476 29.2109 127.865 40.7987 127.865C42.1358 127.865 43.3243 127.716 44.5128 127.567C50.1581 133.976 58.3291 138 67.3914 138C76.4537 138 84.476 134.125 90.1214 127.865C90.8642 127.865 91.4585 128.014 92.2013 128.014C103.641 128.014 113 118.625 113 107.149C113 95.375 103.641 85.9856 92.2013 85.9856Z" fill="url(#paint1_linear_155_11)"/>
</g>
<defs>
<filter id="filter0_d_155_11" x="8" y="0" width="177" height="131" filterUnits="userSpaceOnUse" color-interpolation-filters="sRGB">
<feFlood flood-opacity="0" result="BackgroundImageFix"/>
<feColorMatrix in="SourceAlpha" type="matrix" values="0 0 0 0 0 0 0 0 0 0 0 0 0 0 0 0 0 0 127 0" result="hardAlpha"/>
<feOffset/>
<feGaussianBlur stdDeviation="10"/>
<feComposite in2="hardAlpha" operator="out"/>
<feColorMatrix type="matrix" values="0 0 0 0 0 0 0 0 0 0 0 0 0 0 0 0 0 0 0.25 0"/>
<feBlend mode="normal" in2="BackgroundImageFix" result="effect1_dropShadow_155_11"/>
<feBlend mode="normal" in="SourceGraphic" in2="effect1_dropShadow_155_11" result="shape"/>
</filter>
<filter id="filter1_d_155_11" x="0" y="56" width="133" height="102" filterUnits="userSpaceOnUse" color-interpolation-filters="sRGB">
<feFlood flood-opacity="0" result="BackgroundImageFix"/>
<feColorMatrix in="SourceAlpha" type="matrix" values="0 0 0 0 0 0 0 0 0 0 0 0 0 0 0 0 0 0 127 0" result="hardAlpha"/>
<feOffset/>
<feGaussianBlur stdDeviation="10"/>
<feComposite in2="hardAlpha" operator="out"/>
<feColorMatrix type="matrix" values="0 0 0 0 0 0 0 0 0 0 0 0 0 0 0 0 0 0 0.25 0"/>
<feBlend mode="normal" in2="BackgroundImageFix" result="effect1_dropShadow_155_11"/>
<feBlend mode="normal" in="SourceGraphic" in2="effect1_dropShadow_155_11" result="shape"/>
</filter>
<linearGradient id="paint0_linear_155_11" x1="28" y1="20" x2="165" y2="20" gradientUnits="userSpaceOnUse">
<stop stop-color="#F6D365"/>
<stop offset="1" stop-color="#FDA085"/>
</linearGradient>
<linearGradient id="paint1_linear_155_11" x1="20" y1="76" x2="113" y2="76" gradientUnits="userSpaceOnUse">
<stop stop-color="#F6D365"/>
<stop offset="1" stop-color="#FDA085"/>
</linearGradient>
</defs>
</svg>
