<svg width="136" height="88" viewBox="0 0 136 88" fill="none" xmlns="http://www.w3.org/2000/svg">
<path d="M5.23068 10.8719C8.87781 10.8719 10.4349 11.9097 12.7914 13.4806C15.7087 15.4255 19.3392 17.8464 26.1534 17.8464C32.9679 17.8464 36.5986 15.4257 39.5157 13.4806C41.8715 11.9097 43.4284 10.8724 47.0744 10.8724C50.7213 10.8724 52.2777 11.9102 54.6342 13.4806C57.552 15.4259 61.1824 17.8464 67.9976 17.8464C74.8116 17.8464 78.4429 15.4257 81.3607 13.4806C83.7165 11.9099 85.2734 10.8724 88.9203 10.8724C92.5678 10.8724 94.1252 11.9102 96.4816 13.481C99.3994 15.4259 103.03 17.8468 109.845 17.8468C116.66 17.8468 120.29 15.4262 123.208 13.481C125.565 11.9102 127.122 10.8724 130.769 10.8724C133.658 10.8724 136 8.53036 136 5.64168C136 2.75278 133.658 0.410556 130.769 0.410556C123.954 0.410556 120.323 2.83123 117.405 4.77635C115.049 6.34724 113.492 7.38458 109.845 7.38458C106.198 7.38458 104.641 6.3468 102.285 4.7759C99.3668 2.83101 95.7356 0.410112 88.9203 0.410112C82.1058 0.410112 78.4749 2.83079 75.5571 4.7759C73.2011 6.3468 71.6444 7.38458 67.9976 7.38458C64.35 7.38458 62.7933 6.3468 60.4369 4.7759C57.5195 2.83101 53.8882 0.410112 47.0741 0.410112C40.2597 0.410112 36.629 2.83079 33.7119 4.7759C31.3561 6.3468 29.7992 7.38413 26.1532 7.38413C22.5072 7.38413 20.9501 6.34635 18.5945 4.7759C15.6767 2.83056 12.0458 0.409668 5.23068 0.409668C2.34179 0.410335 0 2.75234 0 5.64124C0 8.53014 2.34179 10.8719 5.23068 10.8719ZM130.77 35.2822C123.954 35.2822 120.323 37.7029 117.405 39.648C115.049 41.2189 113.492 42.2563 109.846 42.2563C106.198 42.2563 104.641 41.2185 102.285 39.6476C99.3672 37.7027 95.7361 35.2818 88.9207 35.2818C82.1063 35.2818 78.4754 37.7025 75.5576 39.6476C73.2016 41.2182 71.6449 42.2558 67.998 42.2558C64.3504 42.2558 62.7938 41.218 60.4373 39.6471C57.52 37.7022 53.8886 35.2813 47.0746 35.2813C40.2601 35.2813 36.6294 37.702 33.7123 39.6471C31.3565 41.218 29.7997 42.2554 26.1536 42.2554C22.5076 42.2554 20.9505 41.2176 18.5949 39.6471C15.6772 37.7022 12.0463 35.2813 5.23113 35.2813C2.34179 35.2822 0 37.6242 0 40.5129C0 43.4018 2.34179 45.7436 5.23068 45.7436C8.87781 45.7436 10.4349 46.7814 12.7914 48.3523C15.7087 50.2972 19.3392 52.7181 26.1534 52.7181C32.9679 52.7181 36.5986 50.2974 39.5157 48.3523C41.8715 46.7814 43.4284 45.744 47.0744 45.744C50.7213 45.744 52.2777 46.7818 54.6342 48.3523C57.552 50.2976 61.1824 52.7181 67.9976 52.7181C74.8116 52.7181 78.4429 50.2974 81.3607 48.3523C83.7165 46.7814 85.2734 45.7436 88.9203 45.7436C92.5678 45.7436 94.1252 46.7814 96.4816 48.3523C99.3994 50.2972 103.03 52.7181 109.845 52.7181C116.66 52.7181 120.29 50.2976 123.208 48.3523C125.565 46.7814 127.122 45.7436 130.769 45.7436C133.658 45.7436 136 43.4016 136 40.5129C136 37.6242 133.659 35.2822 130.77 35.2822ZM130.77 70.1541C123.954 70.1541 120.323 72.5748 117.405 74.5199C115.049 76.0908 113.492 77.1286 109.846 77.1286C106.198 77.1286 104.641 76.0908 102.285 74.5199C99.3672 72.575 95.7361 70.1541 88.9207 70.1541C82.1063 70.1541 78.4754 72.5748 75.5576 74.5199C73.2016 76.0906 71.6449 77.1286 67.998 77.1286C64.3504 77.1286 62.7938 76.0908 60.4373 74.5199C57.52 72.575 53.8886 70.1541 47.0746 70.1541C40.2601 70.1541 36.6294 72.5748 33.7123 74.5199C31.3565 76.0908 29.7997 77.1286 26.1536 77.1286C22.5076 77.1286 20.9505 76.0908 18.5949 74.5199C15.6772 72.575 12.0463 70.1541 5.23113 70.1541C2.34179 70.1541 0 72.4961 0 75.3848C0 78.2737 2.34179 80.6159 5.23068 80.6159C8.87781 80.6159 10.4349 81.6537 12.7914 83.2246C15.7087 85.1695 19.3392 87.5904 26.1534 87.5904C32.9679 87.5904 36.5986 85.1697 39.5157 83.2246C41.8715 81.6537 43.4284 80.6164 47.0744 80.6164C50.7213 80.6164 52.2777 81.6542 54.6342 83.2246C57.552 85.1695 61.1824 87.5904 67.9976 87.5904C74.8116 87.5904 78.4429 85.1697 81.3607 83.2246C83.7165 81.6537 85.2734 80.6159 88.9203 80.6159C92.5678 80.6159 94.1252 81.6537 96.4816 83.2246C99.3994 85.1695 103.03 87.59 109.845 87.59C116.66 87.59 120.29 85.1695 123.208 83.2246C125.565 81.6537 127.122 80.6159 130.769 80.6159C133.658 80.6159 136 78.2739 136 75.3848C136 72.4961 133.659 70.1541 130.77 70.1541Z" fill="url(#paint0_linear_152_108)"/>
<defs>
<linearGradient id="paint0_linear_152_108" x1="0" y1="0.409668" x2="136" y2="0.409668" gradientUnits="userSpaceOnUse">
<stop stop-color="#FCEABB"/>
<stop offset="1" stop-color="#F8B500"/>
</linearGradient>
</defs>
</svg>
