<svg width="117" height="104" viewBox="0 0 117 104" fill="none" xmlns="http://www.w3.org/2000/svg">
<g clip-path="url(#clip0_61_9)">
<g filter="url(#filter0_d_61_9)">
<path d="M61.6362 47.1839H55.3687C54.1066 47.1839 53.0835 48.0933 53.0835 49.2152V54.7863C53.0835 55.9081 54.1066 56.8175 55.3687 56.8175H61.6362C62.8982 56.8175 63.9213 55.9081 63.9213 54.7863V49.2152C63.9213 48.0935 62.8982 47.1839 61.6362 47.1839ZM43.9429 15.7294H37.6751C36.4131 15.7294 35.39 16.6388 35.39 17.7606V23.3317C35.39 24.4536 36.4131 25.363 37.6751 25.363H43.9429C45.205 25.363 46.228 24.4536 46.228 23.3317V17.7606C46.228 16.6388 45.205 15.7294 43.9429 15.7294ZM49.6603 88.2722H61.6362C62.8982 88.2722 63.9213 87.3628 63.9213 86.241V64.9425C63.9213 63.8207 62.8982 62.9113 61.6362 62.9113H37.6751C36.4131 62.9113 35.39 63.8207 35.39 64.9425V86.2408C35.39 87.3626 36.4131 88.272 37.6751 88.272H49.6558L49.6603 88.2722ZM79.3297 78.6386H73.0619C71.7998 78.6386 70.7768 79.548 70.7768 80.6699V86.241C70.7768 87.3628 71.7998 88.2722 73.0619 88.2722H79.3297C80.5918 88.2722 81.6148 87.3628 81.6148 86.241V80.6699C81.6148 79.548 80.5918 78.6386 79.3297 78.6386ZM79.3297 41.0902C80.5918 41.0902 81.6148 40.1808 81.6148 39.0589V17.7606C81.6148 16.6388 80.5918 15.7294 79.3297 15.7294H55.3687C54.1066 15.7294 53.0835 16.6388 53.0835 17.7606V39.0591C53.0835 40.181 54.1066 41.0904 55.3687 41.0904H79.3297V41.0902ZM43.9429 56.8175C45.205 56.8175 46.228 55.9081 46.228 54.7863V33.4878C46.228 32.3659 45.205 31.4565 43.9429 31.4565H19.9821C18.72 31.4565 17.6969 32.3659 17.6969 33.4878V54.7861C17.6969 55.9079 18.72 56.8173 19.9821 56.8173H43.9429V56.8175ZM108.449 72.5449H114.714C115.976 72.5449 117 71.6355 117 70.5136V64.9425C117 63.8207 115.976 62.9113 114.714 62.9113H108.449C107.187 62.9113 106.164 63.8207 106.164 64.9425V70.5136C106.164 71.6355 107.187 72.5449 108.449 72.5449ZM19.9821 72.5449H26.2496C27.5117 72.5449 28.5347 71.6355 28.5347 70.5136V64.9425C28.5347 63.8207 27.5117 62.9113 26.2496 62.9113H19.9821C18.72 62.9113 17.6969 63.8207 17.6969 64.9425V70.5136C17.6969 71.6355 18.72 72.5449 19.9821 72.5449ZM108.449 31.4567C107.187 31.4567 106.164 32.3661 106.164 33.488V54.7865C106.164 55.9083 107.187 56.8177 108.449 56.8177H114.714C115.976 56.8177 117 55.9083 117 54.7865V33.488C117 32.3661 115.976 31.4567 114.714 31.4567H108.449ZM88.4703 23.3317C88.4703 24.4536 89.4934 25.363 90.7554 25.363H114.714C115.976 25.363 117 24.4536 117 23.3317V2.03125C117 0.909391 115.976 0 114.714 0H90.7554C89.4934 0 88.4703 0.909391 88.4703 2.03125V23.3317ZM97.0232 72.5449C98.2853 72.5449 99.3083 71.6355 99.3083 70.5136V49.2152C99.3083 48.0933 98.2853 47.1839 97.0232 47.1839H73.0619C71.7998 47.1839 70.7768 48.0933 70.7768 49.2152V70.5136C70.7768 71.6355 71.7998 72.5449 73.0619 72.5449H97.0232ZM8.55426 31.4567H2.28607C1.02398 31.4567 0.000915527 32.3661 0.000915527 33.488V39.0591C0.000915527 40.181 1.02398 41.0904 2.28607 41.0904H8.55426C9.81635 41.0904 10.8394 40.181 10.8394 39.0591V33.488C10.8394 32.3661 9.81635 31.4567 8.55426 31.4567ZM97.0232 31.4567H90.7554C89.4934 31.4567 88.4703 32.3661 88.4703 33.488V39.0591C88.4703 40.181 89.4934 41.0904 90.7554 41.0904H97.0232C98.2853 41.0904 99.3083 40.181 99.3083 39.0591V33.488C99.3083 32.3661 98.285 31.4567 97.0232 31.4567ZM35.3902 96.3972V101.969C35.3902 103.091 36.4133 104 37.6754 104H43.9431C45.2052 104 46.2283 103.091 46.2283 101.969V96.3972C46.2283 95.2754 45.2052 94.366 43.9431 94.366H37.6754C36.4133 94.366 35.3902 95.2754 35.3902 96.3972ZM117 80.6699C117 79.548 115.976 78.6386 114.714 78.6386H90.7554C89.4934 78.6386 88.4703 79.548 88.4703 80.6699V101.969C88.4703 103.091 89.4934 104 90.7554 104H114.714C115.976 104 117 103.091 117 101.969V80.6699ZM53.0835 96.3976V101.969C53.0835 103.091 54.1066 104 55.3687 104H79.3297C80.5918 104 81.6148 103.091 81.6148 101.969V96.3976C81.6148 95.2758 80.5918 94.3664 79.3297 94.3664H55.3687C54.1066 94.3664 53.0835 95.2758 53.0835 96.3976ZM0.000915527 80.6705V101.969C0.000915527 103.091 1.02398 104 2.28607 104H26.2475C27.5096 104 28.5327 103.091 28.5327 101.969V80.6705C28.5327 79.5486 27.5096 78.6392 26.2475 78.6392H2.28607C1.02421 78.6392 0.000915527 79.5486 0.000915527 80.6705ZM8.55334 47.1839H2.28607C1.02398 47.1839 0.000915527 48.0933 0.000915527 49.2152V70.5136C0.000915527 71.6355 1.02398 72.5449 2.28607 72.5449H8.55334C9.81543 72.5449 10.8385 71.6355 10.8385 70.5136V49.2152C10.8385 48.0935 9.81543 47.1839 8.55334 47.1839ZM49.6558 9.63564H61.6362C62.8982 9.63564 63.9213 8.72625 63.9213 7.60439V2.03125C63.9213 0.909391 62.8982 0 61.6362 0H37.6754C36.4133 0 35.3902 0.909391 35.3902 2.03125V7.60439C35.3902 8.72625 36.4133 9.63564 37.6754 9.63564H49.6558ZM81.6148 7.60439V2.03125C81.6148 0.909391 80.5918 0 79.3297 0H73.0619C71.7998 0 70.7768 0.909391 70.7768 2.03125V7.60439C70.7768 8.72625 71.7998 9.63564 73.0619 9.63564H79.3297C80.5918 9.63564 81.6148 8.72625 81.6148 7.60439ZM0.000915527 23.3317C0.000915527 24.4536 1.02398 25.363 2.28607 25.363H26.2475C27.5096 25.363 28.5327 24.4536 28.5327 23.3317V2.03125C28.5327 0.909391 27.5096 0 26.2475 0H2.28607C1.02398 0 0.000915527 0.909391 0.000915527 2.03125V23.3317Z" fill="url(#paint0_linear_61_9)"/>
</g>
</g>
<defs>
<filter id="filter0_d_61_9" x="-19.9991" y="-20" width="156.999" height="144" filterUnits="userSpaceOnUse" color-interpolation-filters="sRGB">
<feFlood flood-opacity="0" result="BackgroundImageFix"/>
<feColorMatrix in="SourceAlpha" type="matrix" values="0 0 0 0 0 0 0 0 0 0 0 0 0 0 0 0 0 0 127 0" result="hardAlpha"/>
<feOffset/>
<feGaussianBlur stdDeviation="10"/>
<feComposite in2="hardAlpha" operator="out"/>
<feColorMatrix type="matrix" values="0 0 0 0 0 0 0 0 0 0 0 0 0 0 0 0 0 0 0.25 0"/>
<feBlend mode="normal" in2="BackgroundImageFix" result="effect1_dropShadow_61_9"/>
<feBlend mode="normal" in="SourceGraphic" in2="effect1_dropShadow_61_9" result="shape"/>
</filter>
<linearGradient id="paint0_linear_61_9" x1="0.000915527" y1="0" x2="117" y2="0" gradientUnits="userSpaceOnUse">
<stop stop-color="#C9FFBF"/>
<stop offset="1" stop-color="#FFFCCC"/>
</linearGradient>
<clipPath id="clip0_61_9">
<rect width="117" height="104" fill="white"/>
</clipPath>
</defs>
</svg>
