<svg width="47" height="41" viewBox="0 0 47 41" fill="none" xmlns="http://www.w3.org/2000/svg">
<path fill-rule="evenodd" clip-rule="evenodd" d="M23.0897 26.4791C26.7896 26.4791 29.789 23.8021 29.789 20.4999C29.789 17.1977 26.7896 14.5208 23.0897 14.5208C19.3898 14.5208 16.3904 17.1977 16.3904 20.4999C16.3904 23.8021 19.3898 26.4791 23.0897 26.4791ZM23.0897 23.0529C21.51 23.0529 20.2293 21.9098 20.2293 20.4999C20.2293 19.09 21.51 17.947 23.0897 17.947C24.6694 17.947 25.9501 19.09 25.9501 20.4999C25.9501 21.9098 24.6694 23.0529 23.0897 23.0529Z" fill="white"/>
<path fill-rule="evenodd" clip-rule="evenodd" d="M23.1004 8.54175C13.8913 8.54175 7.62827 12.9989 4.32189 16.1947C1.77251 18.6588 1.77251 22.3413 4.32189 24.8054C7.62827 28.0014 13.8913 32.4584 23.1004 32.4584C32.3094 32.4584 38.5725 28.0014 41.8788 24.8054C44.4282 22.3413 44.4282 18.6588 41.8788 16.1947C38.5725 12.9989 32.3094 8.54175 23.1004 8.54175ZM7.1344 18.5126C10.0623 15.6826 15.3807 11.9584 23.1004 11.9584C30.82 11.9584 36.1385 15.6826 39.0663 18.5126C40.2614 19.6678 40.2614 21.3324 39.0663 22.4876C36.1385 25.3176 30.82 29.0417 23.1004 29.0417C15.3807 29.0417 10.0623 25.3176 7.1344 22.4876C5.93921 21.3324 5.93921 19.6678 7.1344 18.5126Z" fill="white"/>
</svg>
