<svg width="173" height="128" viewBox="0 0 173 128" fill="none" xmlns="http://www.w3.org/2000/svg">
<g id="Vector" filter="url(#filter0_d_61_8)">
<path d="M123.256 34.1731C122.193 34.1731 121.344 34.1731 120.281 34.3846C112.208 25.5 100.735 20 87.7749 20C74.8148 20 63.1295 25.7115 55.056 34.8077C53.3564 34.5962 51.4442 34.3846 49.7445 34.3846C33.3851 34.3846 20.0001 47.7115 20.0001 64C20.0001 80.2885 33.1726 93.6154 49.7445 93.6154C51.6567 93.6154 53.3564 93.4038 55.056 93.1923C63.1295 102.288 74.8148 108 87.7749 108C100.735 108 112.208 102.5 120.281 93.6154C121.344 93.6154 122.193 93.8269 123.256 93.8269C139.615 93.8269 153 80.5 153 64.2115C153 47.5 139.615 34.1731 123.256 34.1731Z" fill="url(#paint0_linear_61_8)"/>
</g>
<defs>
<filter id="filter0_d_61_8" x="0.00012207" y="0" width="173" height="128" filterUnits="userSpaceOnUse" color-interpolation-filters="sRGB">
<feFlood flood-opacity="0" result="BackgroundImageFix"/>
<feColorMatrix in="SourceAlpha" type="matrix" values="0 0 0 0 0 0 0 0 0 0 0 0 0 0 0 0 0 0 127 0" result="hardAlpha"/>
<feOffset/>
<feGaussianBlur stdDeviation="10"/>
<feComposite in2="hardAlpha" operator="out"/>
<feColorMatrix type="matrix" values="0 0 0 0 0 0 0 0 0 0 0 0 0 0 0 0 0 0 0.25 0"/>
<feBlend mode="normal" in2="BackgroundImageFix" result="effect1_dropShadow_61_8"/>
<feBlend mode="normal" in="SourceGraphic" in2="effect1_dropShadow_61_8" result="shape"/>
</filter>
<linearGradient id="paint0_linear_61_8" x1="20.0001" y1="20" x2="153" y2="20" gradientUnits="userSpaceOnUse">
<stop stop-color="#F6D365"/>
<stop offset="1" stop-color="#FDA085"/>
</linearGradient>
</defs>
</svg>
