<svg width="163" height="165" viewBox="0 0 163 165" fill="none" xmlns="http://www.w3.org/2000/svg">
<g id="asset (3) 1">
<path id="Vector" d="M79.8417 53.4299C85.9182 42.4453 78.4782 29.2527 66.0875 28.0067L61.566 27.5517C58.2683 27.2197 55.3227 25.777 52.8754 23.0028C44.3575 13.3489 28.4965 15.7328 23.2753 27.3311C22.0036 30.1558 19.7041 32.4153 16.8005 33.6939L10.4306 36.4982C0.276801 40.9681 -3.16576 53.3712 3.24786 62.2415L7.28957 67.831C8.16739 69.0452 8.80818 70.3874 9.19431 71.8201L11.2014 79.2711C13.9508 89.4781 25.4161 94.9936 35.4236 90.7036L36.2805 90.3364C38.8271 89.2446 41.7245 88.98 44.4375 89.5899L57.5781 92.5443C70.3798 95.4227 81.664 84.2037 78.8052 71.8723L77.1421 64.6998C76.469 61.7964 76.898 58.7517 78.3503 56.1266L79.8417 53.4299Z" fill="url(#paint0_linear_54_198)"/>
</g>
<defs>
<linearGradient id="paint0_linear_54_198" x1="0" y1="17" x2="82" y2="17" gradientUnits="userSpaceOnUse">
<stop stop-color="#F6D365"/>
<stop offset="1" stop-color="#FDA085"/>
</linearGradient>
</defs>
</svg>
