<svg width="55" height="55" viewBox="0 0 55 55" fill="none" xmlns="http://www.w3.org/2000/svg">
<g clip-path="url(#clip0_6_157)">
<path d="M46.4062 5.15625C51.1524 5.15625 55 9.0038 55 13.75V34.375C55 39.1212 51.1524 42.9688 46.4062 42.9688H34.375V48.125H39.5312C40.4805 48.125 41.25 48.8945 41.25 49.8438C41.25 50.793 40.4805 51.5625 39.5312 51.5625H15.4688C14.5195 51.5625 13.75 50.793 13.75 49.8438C13.75 48.8945 14.5195 48.125 15.4688 48.125H20.625V42.9688H8.59375C3.97245 42.9688 0.203125 39.321 0.00793978 34.7478L0 34.375V13.75C0 9.0038 3.84755 5.15625 8.59375 5.15625H46.4062ZM30.9375 48.125V42.9688H24.0625V48.125H30.9375ZM46.4062 8.59375H8.59375C5.74603 8.59375 3.4375 10.9023 3.4375 13.75V34.375C3.4375 37.2227 5.74603 39.5312 8.59375 39.5312H46.4062C49.254 39.5312 51.5625 37.2227 51.5625 34.375V13.75C51.5625 10.9023 49.254 8.59375 46.4062 8.59375Z" fill="white"/>
</g>
<defs>
<clipPath id="clip0_6_157">
<rect width="55" height="55" fill="white"/>
</clipPath>
</defs>
</svg>
