<svg width="237" height="171" viewBox="0 0 237 171" fill="none" xmlns="http://www.w3.org/2000/svg">
<g id="Vector" filter="url(#filter0_d_61_7)">
<path d="M172.438 41.0601C170.876 41.0601 169.626 41.0601 168.063 41.3726C156.188 28.2476 139.313 20.1226 120.251 20.1226C101.188 20.1226 84.0008 28.5601 72.1258 41.9976C69.6258 41.6851 66.8133 41.3726 64.3133 41.3726C40.2508 41.3726 20.5633 61.0601 20.5633 85.1226C20.5633 109.185 39.9383 128.873 64.3133 128.873C67.1258 128.873 69.6258 128.56 72.1258 128.248C84.0008 141.685 101.188 150.123 120.251 150.123C139.313 150.123 156.188 141.998 168.063 128.873C169.626 128.873 170.876 129.185 172.438 129.185C196.501 129.185 216.188 109.498 216.188 85.4351C216.188 60.7476 196.501 41.0601 172.438 41.0601Z" fill="url(#paint0_linear_61_7)"/>
</g>
<defs>
<filter id="filter0_d_61_7" x="0.563293" y="0.12262" width="235.625" height="170" filterUnits="userSpaceOnUse" color-interpolation-filters="sRGB">
<feFlood flood-opacity="0" result="BackgroundImageFix"/>
<feColorMatrix in="SourceAlpha" type="matrix" values="0 0 0 0 0 0 0 0 0 0 0 0 0 0 0 0 0 0 127 0" result="hardAlpha"/>
<feOffset/>
<feGaussianBlur stdDeviation="10"/>
<feComposite in2="hardAlpha" operator="out"/>
<feColorMatrix type="matrix" values="0 0 0 0 0 0 0 0 0 0 0 0 0 0 0 0 0 0 0.25 0"/>
<feBlend mode="normal" in2="BackgroundImageFix" result="effect1_dropShadow_61_7"/>
<feBlend mode="normal" in="SourceGraphic" in2="effect1_dropShadow_61_7" result="shape"/>
</filter>
<linearGradient id="paint0_linear_61_7" x1="20.5633" y1="20.1226" x2="216.188" y2="20.1226" gradientUnits="userSpaceOnUse">
<stop stop-color="#F6D365"/>
<stop offset="1" stop-color="#FDA085"/>
</linearGradient>
</defs>
</svg>
