<svg width="279" height="279" viewBox="0 0 279 279" fill="none" xmlns="http://www.w3.org/2000/svg">
<g id="asset (5) 1" clip-path="url(#clip0_61_2)">
<path id="Vector" d="M81.402 220.888C76.0319 217.056 72.0429 212.184 69.4364 206.271C66.8713 200.602 65.8087 194.619 66.2493 188.322C66.9326 181.984 69.1895 176.13 73.0218 170.759C77.8619 163.976 83.4501 159.433 89.7867 157.129C96.1228 154.826 104.709 152.954 115.546 151.516C123.477 150.563 128.854 148.108 131.678 144.151L134.4 140.336L130.585 137.613C126.204 134.487 117.072 134.583 103.187 137.899C89.4454 141.317 77.2037 139.193 66.4635 131.529C61.0934 127.697 57.0547 122.897 54.3471 117.126C51.8822 111.314 50.8702 105.26 51.3116 98.9638C51.9944 92.6268 54.2518 86.7722 58.0836 81.4021C61.9154 76.032 66.6669 72.0638 72.3367 69.4979C78.2479 66.8916 84.3022 65.8788 90.4978 66.4618C96.9372 67.0027 102.84 69.1903 108.211 73.0227C118.81 80.5852 124.779 91.3491 126.119 105.314C127.457 119.279 130.458 127.925 135.123 131.254L138.938 133.976L141.358 130.585C144.182 126.627 144.754 120.744 143.075 112.935L141.376 105.003C140.162 99.2322 139.685 93.0268 139.944 86.3864C140.303 79.6052 142.802 72.9646 147.441 66.4638C151.273 61.0929 156.024 57.1256 161.695 54.5588C167.607 51.9531 173.66 50.9411 179.856 51.5227C186.295 52.065 192.2 54.2524 197.569 58.0836C202.939 61.9154 206.857 66.7377 209.322 72.5484C211.928 78.4604 212.941 84.5147 212.359 90.71C211.917 97.0075 209.781 102.84 205.949 108.211C198.386 118.81 187.622 124.779 173.657 126.119C159.692 127.457 151.046 130.458 147.718 135.123L145.298 138.514L148.689 140.934C153.494 144.362 162.647 144.388 176.147 141.011C189.505 137.534 201.625 139.677 212.508 147.442C217.878 151.274 221.795 156.095 224.261 161.906C226.968 167.677 228.03 173.66 227.449 179.856C227.007 186.155 224.82 192.058 220.888 197.569C217.056 202.939 212.184 206.928 206.272 209.534C200.602 212.1 194.548 213.112 188.109 212.57C181.913 211.988 176.131 209.781 170.761 205.949C164.118 201.21 159.554 195.501 157.068 188.822C154.724 182.244 152.873 173.778 151.516 163.426C150.563 155.494 148.108 150.117 144.151 147.294L140.76 144.874L138.038 148.689C134.306 153.919 134.281 163.071 137.96 176.147C141.639 189.223 139.496 201.343 131.53 212.507C127.697 217.878 122.826 221.866 116.914 224.473C111.244 227.039 105.311 228.03 99.1148 227.448C92.8176 227.007 86.9138 224.821 81.402 220.888Z" fill="url(#paint0_linear_61_2)"/>
</g>
<defs>
<linearGradient id="paint0_linear_61_2" x1="197.569" y1="58.0836" x2="81.402" y2="220.888" gradientUnits="userSpaceOnUse">
<stop stop-color="#DF99F7"/>
<stop offset="1" stop-color="#FFDBB0"/>
</linearGradient>
<clipPath id="clip0_61_2">
<rect width="200" height="200" fill="white" transform="translate(116.167) rotate(35.5094)"/>
</clipPath>
</defs>
</svg>
