<svg width="147" height="136" viewBox="0 0 147 136" fill="none" xmlns="http://www.w3.org/2000/svg">
<path id="Vector" d="M143.131 65.1904C154.024 45.5337 140.686 21.9259 118.474 19.6961L110.368 18.8821C104.457 18.2879 99.1761 15.7062 94.7888 10.7419C79.5189 -6.53359 51.0852 -2.2676 41.7252 18.4873C39.4455 23.5419 35.3232 27.5854 30.1179 29.8733L18.6987 34.8915C0.496216 42.8904 -5.67521 65.0853 5.82239 80.9584L13.0679 90.9608C14.6415 93.1336 15.7903 95.5353 16.4825 98.0991L20.0805 111.432C25.0094 129.698 45.563 139.568 63.5033 131.891L65.0394 131.233C69.6047 129.28 74.7988 128.806 79.6624 129.898L103.219 135.185C126.169 140.335 146.398 120.259 141.273 98.1925L138.291 85.3575C137.085 80.162 137.854 74.7135 140.457 70.0161L143.131 65.1904Z" fill="url(#paint0_linear_54_201)"/>
<defs>
<linearGradient id="paint0_linear_54_201" x1="0" y1="0" x2="147" y2="0" gradientUnits="userSpaceOnUse">
<stop stop-color="#F6D365"/>
<stop offset="1" stop-color="#FDA085"/>
</linearGradient>
</defs>
</svg>
