<svg width="278" height="245" viewBox="0 0 278 245" fill="none" xmlns="http://www.w3.org/2000/svg">
<path d="M147.688 26.7969C147.688 27.554 147.433 28.2941 146.955 28.9237C146.478 29.5532 145.8 30.0439 145.006 30.3336C144.212 30.6233 143.339 30.6992 142.496 30.5514C141.654 30.4037 140.88 30.0391 140.272 29.5038C139.665 28.9684 139.251 28.2863 139.083 27.5437C138.916 26.8011 139.002 26.0314 139.331 25.3319C139.659 24.6324 140.216 24.0345 140.93 23.6139C141.645 23.1933 142.485 22.9688 143.344 22.9688C144.496 22.9688 145.601 23.3721 146.415 24.09C147.23 24.8079 147.688 25.7816 147.688 26.7969Z" fill="black"/>
<path d="M80.7321 44.3518L93.0179 55.1793" stroke="black" stroke-width="7" stroke-linecap="round" stroke-linejoin="round"/>
<path d="M93.0179 44.3518L80.7321 55.1793" stroke="black" stroke-width="7" stroke-linecap="round" stroke-linejoin="round"/>
<path d="M229.233 168.438H48.5518" stroke="black" stroke-width="7" stroke-linecap="round" stroke-linejoin="round"/>
<path d="M39.0938 106.475V80.3906H238.906V106.376" stroke="black" stroke-width="7" stroke-linecap="round" stroke-linejoin="round"/>
<path d="M47.7812 107.188H8.6875V191.406H47.7812V107.188Z" stroke="black" stroke-width="7" stroke-linecap="round" stroke-linejoin="round"/>
<path d="M169.406 183.75H108.594" stroke="black" stroke-width="7" stroke-linecap="round" stroke-linejoin="round"/>
<path d="M28.2344 137.812C31.8329 137.812 34.75 135.242 34.75 132.07C34.75 128.899 31.8329 126.328 28.2344 126.328C24.6359 126.328 21.7188 128.899 21.7188 132.07C21.7188 135.242 24.6359 137.812 28.2344 137.812Z" stroke="black" stroke-width="7" stroke-linecap="round" stroke-linejoin="round"/>
<path d="M28.2344 176.094C36.6308 176.094 43.4375 170.095 43.4375 162.695C43.4375 155.296 36.6308 149.297 28.2344 149.297C19.8379 149.297 13.0312 155.296 13.0312 162.695C13.0312 170.095 19.8379 176.094 28.2344 176.094Z" stroke="black" stroke-width="7" stroke-linecap="round" stroke-linejoin="round"/>
<path d="M269.312 107.188H230.219V191.406H269.312V107.188Z" stroke="black" stroke-width="7" stroke-linecap="round" stroke-linejoin="round"/>
<path d="M249.766 137.812C253.364 137.812 256.281 135.242 256.281 132.07C256.281 128.899 253.364 126.328 249.766 126.328C246.167 126.328 243.25 128.899 243.25 132.07C243.25 135.242 246.167 137.812 249.766 137.812Z" stroke="black" stroke-width="7" stroke-linecap="round" stroke-linejoin="round"/>
<path d="M249.766 176.094C258.162 176.094 264.969 170.095 264.969 162.695C264.969 155.296 258.162 149.297 249.766 149.297C241.369 149.297 234.562 155.296 234.562 162.695C234.562 170.095 241.369 176.094 249.766 176.094Z" stroke="black" stroke-width="7" stroke-linecap="round" stroke-linejoin="round"/>
<path d="M160.719 218.203H73.8438L78.1875 195.234H156.375L160.719 218.203Z" stroke="black" stroke-width="7" stroke-linecap="round" stroke-linejoin="round"/>
<path d="M197.641 202.891C199.067 202.891 200.479 203.138 201.796 203.619C203.114 204.1 204.311 204.805 205.319 205.694C206.328 206.582 207.128 207.637 207.673 208.799C208.219 209.96 208.5 211.204 208.5 212.461V214.375H186.781V212.461C186.781 209.923 187.925 207.488 189.962 205.694C191.998 203.899 194.761 202.891 197.641 202.891Z" stroke="black" stroke-width="7" stroke-linecap="round" stroke-linejoin="round"/>
<path d="M195.469 153.125H169.406V111.016L182.438 103.359L195.469 111.016V153.125Z" stroke="black" stroke-width="7" stroke-linecap="round" stroke-linejoin="round"/>
<path d="M186.781 118.672C186.781 119.429 186.526 120.169 186.049 120.799C185.572 121.428 184.893 121.919 184.1 122.209C183.306 122.498 182.433 122.574 181.59 122.426C180.747 122.279 179.973 121.914 179.366 121.379C178.759 120.843 178.345 120.161 178.177 119.419C178.01 118.676 178.096 117.906 178.424 117.207C178.753 116.507 179.31 115.91 180.024 115.489C180.739 115.068 181.578 114.844 182.438 114.844C183.59 114.844 184.694 115.247 185.509 115.965C186.324 116.683 186.781 117.657 186.781 118.672Z" fill="black"/>
<path d="M165.062 80.3906V72.7344C165.062 70.7038 165.978 68.7564 167.607 67.3206C169.236 65.8848 171.446 65.0781 173.75 65.0781C176.054 65.0781 178.264 65.8848 179.893 67.3206C181.522 68.7564 182.438 70.7038 182.438 72.7344V103.359" stroke="black" stroke-width="7" stroke-linecap="round" stroke-linejoin="round"/>
<path d="M86.875 206.719H147.688" stroke="black" stroke-width="7" stroke-linecap="round" stroke-linejoin="round"/>
<path d="M134.656 195.234V218.203" stroke="black" stroke-width="7" stroke-linejoin="round"/>
<path d="M186.781 49.7656C191.579 49.7656 195.469 46.3378 195.469 42.1094C195.469 37.8809 191.579 34.4531 186.781 34.4531C181.983 34.4531 178.094 37.8809 178.094 42.1094C178.094 46.3378 181.983 49.7656 186.781 49.7656Z" stroke="black" stroke-width="7" stroke-linecap="round" stroke-linejoin="round"/>
<path d="M152.031 168.438V183.75" stroke="black" stroke-width="7" stroke-linejoin="round"/>
<path d="M125.969 168.438V183.75" stroke="black" stroke-width="7" stroke-linejoin="round"/>
</svg>
