<svg width="248" height="248" viewBox="0 0 248 248" fill="none" xmlns="http://www.w3.org/2000/svg">
<path d="M127.462 199.803C127.269 199.803 127.072 199.773 126.883 199.72C126.545 199.614 126.243 199.418 126.009 199.152C125.775 198.887 125.618 198.563 125.555 198.215C124.253 191.04 120.568 178.88 116.224 176.798C115.762 176.575 115.406 176.177 115.236 175.692C115.066 175.207 115.095 174.674 115.316 174.21C115.539 173.747 115.937 173.392 116.423 173.221C116.908 173.051 117.441 173.08 117.905 173.302C123.716 176.095 127.159 187.756 128.604 193.893C151.311 169.45 141.046 153.938 140.936 153.779C140.791 153.57 140.688 153.334 140.635 153.086C140.581 152.837 140.577 152.58 140.622 152.33C140.668 152.08 140.763 151.841 140.901 151.627C141.039 151.413 141.218 151.229 141.428 151.085C142.294 150.479 143.516 150.692 144.122 151.577C144.663 152.356 157.051 171.041 128.832 199.237C128.652 199.417 128.439 199.559 128.203 199.656C127.968 199.754 127.716 199.804 127.462 199.803ZM84.2904 144.009C83.9548 144.009 83.6251 143.921 83.3333 143.755C83.0415 143.59 82.7975 143.351 82.6252 143.063C79.7988 138.304 66.3138 134.929 61.3572 134.028C61.0085 133.965 60.6839 133.807 60.4184 133.572C60.1529 133.337 59.9568 133.034 59.8513 132.696C59.7464 132.359 59.7358 132 59.8205 131.657C59.9052 131.314 60.082 131.001 60.3318 130.751C88.5432 102.535 107.23 114.907 108.006 115.452C108.216 115.596 108.395 115.781 108.533 115.994C108.671 116.208 108.765 116.447 108.811 116.697C108.857 116.947 108.853 117.204 108.799 117.453C108.745 117.701 108.643 117.937 108.499 118.146C107.893 119.028 106.69 119.24 105.812 118.645C105.146 118.188 89.9281 108.418 65.6749 130.979C71.6076 132.371 82.7201 135.632 85.9552 141.081C86.0858 141.299 86.1719 141.541 86.2086 141.793C86.2454 142.045 86.2321 142.302 86.1695 142.548C86.1069 142.795 85.9963 143.027 85.8439 143.231C85.6915 143.435 85.5004 143.607 85.2815 143.736C84.9811 143.914 84.6391 144.008 84.2904 144.009ZM45.8553 216.429C44.8793 216.429 44.2665 216.02 43.9221 215.679C39.5444 211.298 62.8559 185.788 63.1019 185.539C66.0305 182.618 71.1343 182.618 74.0633 185.546C74.7845 186.263 75.3562 187.115 75.7452 188.054C76.1343 188.994 76.333 190.001 76.3297 191.017C76.3297 193.091 75.5237 195.036 74.0595 196.497C73.8585 196.701 51.554 216.429 45.8553 216.429ZM68.5802 187.151C68.0719 187.149 67.5681 187.247 67.0981 187.441C66.628 187.634 66.2008 187.919 65.8411 188.278C63.0414 191.078 51.0773 205.819 47.8461 211.752C53.7787 208.521 68.5202 196.557 71.3198 193.757C71.6818 193.399 71.9687 192.972 72.1637 192.502C72.3587 192.031 72.4578 191.527 72.4552 191.018C72.4575 190.51 72.3587 190.007 72.1644 189.538C71.9701 189.069 71.6843 188.643 71.3237 188.286C70.9644 187.924 70.5368 187.638 70.0659 187.443C69.5949 187.248 69.0899 187.149 68.5802 187.151Z" fill="#565860"/>
<path d="M38.269 228.499C35.9876 228.499 34.2022 227.87 32.9646 226.637C29.2451 222.914 31.0538 214.544 38.4923 201.051C44.0544 190.957 51.3346 180.877 54.8875 177.328C58.5426 173.665 63.4042 171.652 68.5769 171.652C73.7495 171.652 78.6151 173.665 82.2735 177.328C89.822 184.88 89.8298 197.17 82.2847 204.722C76.3482 210.655 50.3125 228.499 38.269 228.499ZM68.5764 175.527C64.4369 175.527 60.5513 177.139 57.6266 180.067C54.2442 183.443 47.1118 193.432 41.8863 202.921C34.7617 215.838 34.1039 222.294 35.7038 223.898C36.1882 224.382 37.0508 224.624 38.269 224.624C48.4211 224.624 73.333 208.188 79.5455 201.983C85.5804 195.944 85.5726 186.107 79.5344 180.068C76.6054 177.139 72.7159 175.527 68.5764 175.527ZM108.131 185.932C107.748 185.932 107.373 185.819 107.054 185.606C106.736 185.393 106.487 185.091 106.341 184.736C106.194 184.382 106.156 183.993 106.231 183.617C106.306 183.241 106.49 182.896 106.762 182.625L213.605 75.7794C222.996 66.3884 225.88 56.0964 226.761 50.7997C228.127 42.6041 226.58 36.6981 224.563 34.6812C222.656 32.7742 216.174 31.7527 207.476 33.493C198.047 35.3772 189.295 39.8044 183.465 45.6348L76.6209 152.485L73.8817 149.745L180.725 42.8957C187.082 36.5354 196.557 31.726 206.719 29.6945C214.105 28.2191 223.401 28.0336 227.303 31.942C233.417 38.0563 233.909 60.9551 216.345 78.5191L109.501 185.365C109.321 185.545 109.108 185.688 108.873 185.785C108.637 185.883 108.385 185.932 108.131 185.932Z" fill="#565860"/>
<path d="M193.052 46.2027C192.718 46.2031 192.389 46.1168 192.098 45.9523C191.807 45.7878 191.563 45.5507 191.391 45.264C191.128 44.8231 191.049 44.2959 191.173 43.7975C191.297 43.2991 191.614 42.8701 192.053 42.6043C205.712 34.382 217.926 33.5121 221.823 37.4205C222.174 37.7864 222.367 38.2749 222.361 38.7814C222.356 39.2879 222.152 39.7721 221.794 40.1302C221.436 40.4884 220.952 40.6921 220.445 40.6977C219.939 40.7033 219.45 40.5103 219.084 40.1601C217.37 38.4498 207.752 37.6777 194.051 45.9261C193.749 46.1063 193.404 46.2019 193.052 46.2027ZM91.6873 169.488C91.3043 169.488 90.9299 169.374 90.6114 169.161C90.293 168.949 90.0448 168.646 89.8982 168.292C89.7516 167.938 89.7132 167.549 89.7878 167.173C89.8625 166.798 90.0468 166.452 90.3175 166.181L123.179 133.324C123.359 133.144 123.572 133.001 123.807 132.904C124.042 132.807 124.294 132.757 124.549 132.757C124.803 132.757 125.055 132.807 125.29 132.904C125.525 133.001 125.738 133.144 125.918 133.324C126.098 133.504 126.241 133.717 126.338 133.952C126.435 134.187 126.485 134.439 126.485 134.693C126.485 134.948 126.435 135.2 126.338 135.435C126.241 135.67 126.098 135.883 125.918 136.063L93.0566 168.921C92.877 169.101 92.6636 169.244 92.4286 169.341C92.1936 169.439 91.9417 169.489 91.6873 169.488ZM86.2085 164.01C85.9542 164.01 85.7022 163.96 85.4672 163.863C85.2322 163.765 85.0188 163.622 84.8392 163.442L73.8817 152.485C73.5185 152.122 73.3144 151.629 73.3144 151.115C73.3144 150.601 73.5185 150.109 73.8817 149.746C74.2449 149.382 74.7376 149.178 75.2513 149.178C75.7649 149.178 76.2576 149.382 76.6208 149.746L87.5784 160.703C87.8496 160.974 88.0343 161.319 88.1092 161.695C88.1841 162.071 88.1458 162.46 87.9991 162.815C87.8524 163.169 87.604 163.471 87.2853 163.684C86.9665 163.897 86.5918 164.01 86.2085 164.01ZM108.131 185.932C107.876 185.933 107.625 185.883 107.39 185.785C107.155 185.688 106.941 185.545 106.762 185.365L95.7963 174.399C95.433 174.036 95.229 173.543 95.229 173.03C95.229 172.516 95.433 172.023 95.7963 171.66C96.1595 171.297 96.6521 171.093 97.1658 171.093C97.6795 171.093 98.1722 171.297 98.5354 171.66L109.501 182.625C109.772 182.896 109.957 183.241 110.032 183.617C110.106 183.993 110.068 184.383 109.921 184.737C109.775 185.091 109.526 185.394 109.208 185.606C108.889 185.819 108.514 185.933 108.131 185.932ZM173.877 98.9284C170.252 98.9284 166.85 97.5169 164.289 94.9555C161.727 92.3937 160.316 88.9885 160.316 85.3673C160.316 81.7428 161.727 78.3371 164.289 75.7757C169.412 70.6491 178.345 70.6491 183.469 75.7719C186.03 78.3332 187.441 81.7384 187.441 85.3596C187.441 88.9842 186.03 92.3898 183.469 94.9517C180.906 97.513 177.497 98.9284 173.877 98.9284ZM173.88 75.6735C171.292 75.6735 168.86 76.6839 167.028 78.5149C166.126 79.4126 165.41 80.4804 164.923 81.6566C164.436 82.8327 164.187 84.0938 164.191 85.3668C164.188 86.6393 164.437 87.8998 164.924 89.0754C165.411 90.2509 166.126 91.3182 167.028 92.2154C170.684 95.8705 177.067 95.8744 180.729 92.2115C181.632 91.3138 182.347 90.2459 182.835 89.0697C183.322 87.8934 183.571 86.6322 183.567 85.3591C183.57 84.0866 183.321 82.8261 182.834 81.6506C182.347 80.475 181.631 79.4078 180.729 78.5105C179.832 77.6083 178.764 76.893 177.589 76.406C176.413 75.9191 175.153 75.6701 173.88 75.6735ZM146.483 126.322C142.858 126.322 139.452 124.911 136.895 122.349C134.333 119.788 132.922 116.383 132.922 112.762C132.922 109.137 134.333 105.731 136.895 103.174C142.01 98.0584 150.947 98.0507 156.07 103.174C158.632 105.736 160.043 109.141 160.043 112.762C160.043 116.382 158.632 119.788 156.07 122.349C153.509 124.911 150.103 126.322 146.483 126.322ZM146.483 103.075C143.894 103.075 141.462 104.082 139.634 105.913C137.803 107.74 136.796 110.173 136.796 112.762C136.793 114.034 137.042 115.295 137.529 116.47C138.016 117.646 138.732 118.713 139.634 119.61C143.285 123.269 149.665 123.276 153.331 119.61C154.233 118.713 154.948 117.646 155.435 116.47C155.922 115.295 156.172 114.034 156.168 112.762C156.172 111.489 155.922 110.229 155.435 109.053C154.948 107.878 154.233 106.81 153.331 105.913C152.434 105.011 151.367 104.295 150.191 103.808C149.016 103.321 147.755 103.072 146.483 103.075ZM219.001 193.742C217.93 193.742 217.045 192.879 217.045 191.804C217.045 190.738 217.892 189.867 218.959 189.867H219.001C219.514 189.868 220.006 190.073 220.369 190.436C220.733 190.799 220.937 191.291 220.938 191.804C220.938 192.879 220.068 193.742 219.001 193.742ZM67.8876 3.88965C66.8171 3.88965 65.9316 3.02311 65.9316 1.95215C65.9316 0.881684 66.7793 0.0151367 67.8459 0.0151367H67.8876C68.9546 0.0151367 69.8251 0.881684 69.8251 1.95215C69.8251 3.02311 68.9546 3.88965 67.8876 3.88965ZM153.127 11.6387C152.056 11.6387 151.171 10.7721 151.171 9.70118C151.171 8.63071 152.018 7.76417 153.085 7.76417H153.127C153.641 7.76455 154.133 7.96875 154.496 8.33193C154.859 8.69511 155.064 9.18757 155.064 9.70118C155.064 10.7721 154.194 11.6387 153.127 11.6387ZM9.7703 58.1329C8.69935 58.1329 7.81439 57.2663 7.81439 56.1954C7.81439 55.1249 8.66205 54.2584 9.72864 54.2584H9.7703C10.8374 54.2584 11.7078 55.1249 11.7078 56.1954C11.7078 57.2663 10.8374 58.1329 9.7703 58.1329ZM40.7626 162.746C39.6916 162.746 38.8062 161.875 38.8062 160.809C38.8062 159.734 39.6538 158.871 40.7209 158.871H40.7626C41.017 158.871 41.269 158.921 41.5041 159.018C41.7392 159.116 41.9528 159.259 42.1327 159.438C42.3126 159.618 42.4552 159.832 42.5525 160.067C42.6498 160.302 42.6998 160.554 42.6996 160.809C42.6985 161.322 42.4941 161.814 42.1311 162.177C41.7681 162.54 41.276 162.745 40.7626 162.746ZM137.432 244.111C136.361 244.111 135.475 243.24 135.475 242.173C135.475 241.099 136.323 240.236 137.39 240.236H137.432C138.499 240.236 139.369 241.099 139.369 242.173C139.369 243.24 138.499 244.111 137.432 244.111ZM230.616 247.985C229.546 247.985 228.66 247.122 228.66 246.048C228.66 244.98 229.508 244.111 230.575 244.111H230.616C231.683 244.111 232.554 244.98 232.554 246.048C232.554 247.122 231.683 247.985 230.616 247.985ZM188.005 143.373C186.934 143.373 186.049 142.503 186.049 141.436C186.049 140.361 186.896 139.499 187.963 139.499H188.005C189.072 139.499 189.942 140.361 189.942 141.436C189.941 141.95 189.737 142.442 189.374 142.805C189.011 143.168 188.518 143.372 188.005 143.373ZM234.495 127.874C233.424 127.874 232.539 127.007 232.539 125.936C232.539 124.866 233.386 123.999 234.453 123.999H234.495C235.009 124 235.501 124.204 235.864 124.567C236.228 124.93 236.432 125.423 236.432 125.936C236.432 127.007 235.562 127.874 234.495 127.874ZM211.248 182.111C210.177 182.111 209.292 181.248 209.292 180.174C209.292 179.107 210.139 178.237 211.206 178.237H211.248C211.761 178.238 212.254 178.442 212.617 178.805C212.98 179.168 213.184 179.66 213.185 180.174C213.185 181.248 212.315 182.111 211.248 182.111Z" fill="#565860"/>
<path d="M220.817 201.498C210.135 201.49 201.444 192.796 201.44 182.118C201.444 171.433 210.135 162.746 220.813 162.746C231.494 162.746 240.186 171.433 240.186 182.118C240.186 192.796 231.498 201.49 220.817 201.498ZM220.813 166.62C212.27 166.62 205.319 173.574 205.315 182.118C205.319 190.662 212.273 197.616 220.817 197.624C229.361 197.616 236.311 190.662 236.311 182.118C236.311 173.567 229.361 166.62 220.813 166.62Z" fill="#565860"/>
<path d="M226.637 182.118C223.432 182.118 220.821 179.507 220.817 176.307C220.817 173.098 223.424 170.495 226.625 170.495C229.83 170.495 232.437 173.105 232.437 176.307C232.44 177.068 232.293 177.822 232.003 178.526C231.714 179.23 231.287 179.87 230.749 180.408C230.212 180.952 229.571 181.383 228.865 181.677C228.159 181.971 227.401 182.121 226.637 182.118ZM226.621 174.369C226.109 174.369 225.619 174.573 225.257 174.935C224.895 175.296 224.692 175.787 224.691 176.299C224.695 177.388 225.543 178.244 226.629 178.244H226.637C227.155 178.244 227.639 178.039 228.002 177.676C228.365 177.313 228.562 176.828 228.562 176.314C228.562 175.799 228.358 175.304 227.994 174.94C227.63 174.575 227.136 174.37 226.621 174.369ZM172.389 224.745C171.875 224.745 171.383 224.541 171.02 224.177C170.657 223.814 170.452 223.322 170.452 222.808L170.444 207.302C170.445 206.789 170.649 206.296 171.012 205.933C171.375 205.57 171.868 205.366 172.381 205.365C173.452 205.365 174.319 206.235 174.319 207.302L174.327 222.808C174.326 223.322 174.122 223.814 173.759 224.177C173.395 224.541 172.903 224.745 172.389 224.745Z" fill="#565860"/>
<path d="M176.257 216.989H168.508C167.437 216.989 166.57 216.118 166.57 215.052C166.57 213.977 167.437 213.114 168.508 213.114H176.257C176.511 213.114 176.763 213.164 176.999 213.261C177.234 213.358 177.448 213.501 177.628 213.681C177.808 213.861 177.95 214.075 178.047 214.31C178.145 214.545 178.194 214.797 178.194 215.052C178.193 215.565 177.989 216.058 177.626 216.421C177.263 216.784 176.77 216.988 176.257 216.989ZM94.892 240.236C93.821 240.236 92.9545 239.365 92.9545 238.298V222.801C92.9545 221.726 93.821 220.863 94.892 220.863C95.9629 220.863 96.829 221.726 96.829 222.801V238.298C96.829 239.365 95.9629 240.236 94.892 240.236Z" fill="#565860"/>
<path d="M98.7626 232.487H91.0174C89.9465 232.487 89.0799 231.616 89.0799 230.549C89.0795 230.295 89.1293 230.043 89.2265 229.807C89.3237 229.572 89.4664 229.358 89.6465 229.178C89.8265 228.999 90.0402 228.856 90.2755 228.759C90.5108 228.662 90.7629 228.612 91.0174 228.612H98.7626C99.0171 228.612 99.2692 228.662 99.5045 228.759C99.7397 228.856 99.9534 228.999 100.133 229.179C100.313 229.358 100.456 229.572 100.553 229.807C100.65 230.043 100.7 230.295 100.7 230.549C100.7 231.616 99.8336 232.487 98.7626 232.487ZM47.8078 47.9995C46.7368 47.9995 45.8703 47.133 45.8703 46.062L45.8742 30.564C45.874 30.3095 45.9241 30.0575 46.0214 29.8224C46.1187 29.5873 46.2615 29.3737 46.4414 29.1938C46.6213 29.0139 46.835 28.8713 47.0701 28.774C47.3052 28.6767 47.5572 28.6268 47.8117 28.627C48.0661 28.6268 48.318 28.6768 48.5531 28.7741C48.7882 28.8714 49.0017 29.0141 49.1816 29.194C49.3615 29.3739 49.5042 29.5875 49.6015 29.8226C49.6988 30.0576 49.7488 30.3096 49.7487 30.564L49.7448 46.062C49.7448 47.1335 48.8783 47.9995 47.8078 47.9995Z" fill="#565860"/>
<path d="M51.6823 40.2512H43.9333C42.8623 40.2512 41.9958 39.3846 41.9958 38.3137C41.9957 38.0592 42.0457 37.8073 42.143 37.5722C42.2404 37.3371 42.3831 37.1234 42.563 36.9435C42.743 36.7636 42.9566 36.621 43.1917 36.5237C43.4268 36.4264 43.6788 36.3765 43.9333 36.3767H51.6823C51.9367 36.3765 52.1887 36.4266 52.4237 36.5238C52.6588 36.6211 52.8724 36.7638 53.0523 36.9437C53.2322 37.1236 53.3748 37.3372 53.4721 37.5723C53.5694 37.8073 53.6195 38.0593 53.6193 38.3137C53.6193 39.3846 52.7528 40.2512 51.6823 40.2512ZM125.888 34.8853C125.633 34.8854 125.381 34.8354 125.146 34.7381C124.911 34.6408 124.698 34.4981 124.518 34.3182C124.338 34.1383 124.195 33.9247 124.098 33.6897C124 33.4546 123.95 33.2027 123.951 32.9483L123.954 17.4502C123.954 16.3792 124.821 15.5127 125.891 15.5127C126.962 15.5127 127.829 16.3792 127.829 17.4502L127.825 32.9483C127.825 33.2027 127.775 33.4547 127.678 33.6898C127.581 33.9249 127.438 34.1385 127.258 34.3184C127.078 34.4983 126.864 34.641 126.629 34.7382C126.394 34.8355 126.142 34.8855 125.888 34.8853Z" fill="#565860"/>
<path d="M129.762 27.1362H122.017C121.763 27.1364 121.511 27.0863 121.276 26.989C121.04 26.8918 120.827 26.7491 120.647 26.5692C120.467 26.3893 120.324 26.1757 120.227 25.9406C120.13 25.7056 120.08 25.4536 120.08 25.1992C120.08 24.1283 120.947 23.2617 122.017 23.2617H129.762C130.833 23.2617 131.7 24.1283 131.7 25.1992C131.7 25.4537 131.65 25.7056 131.552 25.9407C131.455 26.1758 131.312 26.3895 131.132 26.5694C130.952 26.7493 130.739 26.8919 130.504 26.9892C130.269 27.0865 130.017 27.1364 129.762 27.1362ZM21.2728 123.999C21.0183 123.999 20.7663 123.949 20.5312 123.852C20.2961 123.755 20.0825 123.612 19.9026 123.432C19.7227 123.252 19.5801 123.038 19.4828 122.803C19.3855 122.568 19.3356 122.316 19.3358 122.062L19.3435 106.564C19.3435 105.493 20.2096 104.626 21.2805 104.626C22.3515 104.626 23.218 105.493 23.218 106.564L23.2103 122.062C23.2103 123.133 22.3437 123.999 21.2728 123.999Z" fill="#565860"/>
<path d="M25.155 116.25H17.406C16.3351 116.25 15.469 115.383 15.469 114.313C15.469 113.242 16.3351 112.375 17.406 112.375H25.155C26.226 112.375 27.0921 113.242 27.0921 114.313C27.0921 115.383 26.226 116.25 25.155 116.25ZM87.1429 81.3794C83.5256 81.3794 80.1205 79.9679 77.5552 77.4065C74.9934 74.8447 73.5824 71.4395 73.5785 67.8188C73.5785 64.1976 74.9895 60.7925 77.5513 58.235C82.6818 53.1079 91.604 53.104 96.7268 58.2311C99.2925 60.7925 100.703 64.1976 100.703 67.8188C100.703 71.44 99.2925 74.8452 96.7268 77.4065C94.1693 79.9684 90.7641 81.3794 87.1429 81.3794ZM87.1429 58.1328C84.5549 58.1328 82.1219 59.1427 80.291 60.9741C79.3884 61.8704 78.6729 62.9369 78.1858 64.1119C77.6987 65.2869 77.4498 66.5469 77.4535 67.8188C77.4518 69.0914 77.7019 70.3517 78.1896 71.5271C78.6772 72.7025 79.3927 73.7698 80.2948 74.6674C83.9577 78.3302 90.333 78.3302 93.9881 74.6674C95.8195 72.8364 96.8295 70.4034 96.8295 67.8188C96.8295 65.2347 95.8195 62.8017 93.9881 60.9702C92.1567 59.1388 89.7271 58.1328 87.1429 58.1328Z" fill="#565860"/>
<path d="M77.1314 81.0389C76.2343 81.0389 75.4399 80.7701 74.8156 80.1462C74.4739 79.8046 74.2722 79.3476 74.2501 78.865C74.2279 78.3823 74.3869 77.9088 74.6959 77.5373C75.0049 77.1658 75.4415 76.9231 75.9201 76.8569C76.3987 76.7907 76.8848 76.9058 77.283 77.1794C78.524 77.1078 82.9279 74.7692 88.5093 69.1921C94.0937 63.6073 96.4318 59.1994 96.504 57.9546C95.9862 57.2014 96.0578 56.1571 96.7311 55.4877C97.0945 55.1245 97.5872 54.9204 98.1009 54.9204C98.6147 54.9204 99.1074 55.1245 99.4707 55.4877C103.383 59.4 93.3066 69.8731 91.2485 71.9317C89.5188 73.6609 81.8569 81.0389 77.1314 81.0389Z" fill="#565860"/>
<path d="M212.236 76.3433C211.981 76.3436 211.729 76.2936 211.494 76.1961C211.259 76.0987 211.046 75.9558 210.866 75.7756L183.469 48.3779C183.118 48.012 182.925 47.5235 182.931 47.0171C182.936 46.5106 183.14 46.0264 183.498 45.6682C183.856 45.31 184.34 45.1063 184.847 45.1007C185.353 45.0951 185.842 45.2881 186.208 45.6383L213.605 73.036C213.785 73.2158 213.928 73.4293 214.025 73.6643C214.122 73.8993 214.172 74.1512 214.172 74.4056C214.172 74.6599 214.122 74.9118 214.025 75.1468C213.928 75.3818 213.785 75.5953 213.605 75.7751C213.426 75.9556 213.212 76.0987 212.977 76.1962C212.742 76.2938 212.49 76.3437 212.236 76.3433Z" fill="#565860"/>
<path d="M98.8197 183.556C96.3484 183.556 92.0922 181.657 84.8392 174.4C74.1122 163.677 75.0844 159.499 76.6208 157.963C76.9581 157.626 77.4076 157.426 77.8835 157.4C78.3593 157.374 78.828 157.524 79.1999 157.822C79.5719 158.12 79.8208 158.545 79.8993 159.015C79.9777 159.485 79.88 159.967 79.6249 160.37C79.5949 160.831 79.746 163.828 87.5784 171.661C95.3991 179.485 98.3504 179.591 98.8725 179.621C99.2442 179.386 99.6849 179.284 100.122 179.332C100.559 179.38 100.967 179.576 101.279 179.886C101.642 180.25 101.846 180.742 101.846 181.256C101.846 181.77 101.642 182.262 101.279 182.626C100.783 183.117 100.007 183.556 98.8197 183.556Z" fill="#565860"/>
<path d="M149.222 111.959C148.967 111.96 148.715 111.91 148.48 111.812C148.245 111.715 148.032 111.572 147.852 111.392C147.103 110.643 145.824 110.643 145.075 111.392C144.895 111.572 144.682 111.714 144.447 111.812C144.212 111.909 143.96 111.959 143.706 111.959C143.451 111.959 143.199 111.909 142.964 111.812C142.729 111.714 142.516 111.572 142.336 111.392C141.579 110.639 141.579 109.413 142.336 108.653C144.538 106.443 148.39 106.443 150.592 108.653C151.348 109.413 151.348 110.639 150.592 111.392C150.412 111.572 150.198 111.715 149.963 111.812C149.728 111.91 149.476 111.96 149.222 111.959Z" fill="#565860"/>
<path d="M176.62 84.5617C176.365 84.5619 176.113 84.5119 175.878 84.4146C175.643 84.3173 175.43 84.1745 175.25 83.9945C174.881 83.6273 174.382 83.4212 173.862 83.4212C173.341 83.4212 172.842 83.6273 172.473 83.9945C172.107 84.3447 171.618 84.5377 171.112 84.5321C170.605 84.5265 170.121 84.3228 169.763 83.9646C169.405 83.6064 169.201 83.1222 169.196 82.6158C169.19 82.1093 169.383 81.6208 169.734 81.2549C172.011 78.9769 175.712 78.9769 177.99 81.2549C178.261 81.5259 178.445 81.8711 178.52 82.2469C178.594 82.6226 178.556 83.012 178.409 83.3659C178.262 83.7198 178.014 84.0223 177.696 84.2352C177.377 84.448 177.003 84.5616 176.62 84.5617Z" fill="#565860"/>
</svg>
