<svg width="25" height="25" viewBox="0 0 25 25" fill="none" xmlns="http://www.w3.org/2000/svg">
<path fill-rule="evenodd" clip-rule="evenodd" d="M18.2263 16.6186C19.6266 14.8682 20.4638 12.6478 20.4638 10.2319C20.4638 4.58098 15.8828 0 10.2319 0C4.58098 0 0 4.58098 0 10.2319C0 15.8828 4.58098 20.4638 10.2319 20.4638C12.6478 20.4638 14.8682 19.6266 16.6186 18.2263L23.0592 24.667C23.5032 25.111 24.223 25.111 24.667 24.667C25.111 24.223 25.111 23.5032 24.667 23.0592L18.2263 16.6186ZM10.2319 18.2015C5.83045 18.2015 2.26235 14.6334 2.26235 10.2319C2.26235 5.83045 5.83045 2.26235 10.2319 2.26235C14.6334 2.26235 18.2015 5.83045 18.2015 10.2319C18.2015 14.6334 14.6334 18.2015 10.2319 18.2015Z" fill="white"/>
</svg>
