<svg width="81" height="81" viewBox="0 0 81 81" fill="none" xmlns="http://www.w3.org/2000/svg">
<g clip-path="url(#clip0_69_297)">
<path d="M21.496 44.4491L1.59865 35.7428C-0.643718 34.7624 -0.492001 31.5313 1.83295 30.7664L77.495 5.8236C79.4745 5.17165 81.4034 6.93877 80.9266 8.96884L65.807 73.2548C65.3555 75.1754 63.0476 75.9587 61.5213 74.7087L43.755 60.1719L21.496 44.4491Z" fill="#9D9D9D"/>
<path d="M62.722 19.7058L21.496 44.4491L26.5403 67.8472C26.9928 69.9464 29.4671 70.8715 31.1858 69.5844L43.7552 60.1718L33.4132 51.7081L64.0247 21.3816C64.9222 20.4924 63.8056 19.0554 62.722 19.7058Z" fill="#E9ECF5"/>
<path d="M28.2037 69.909C29.1304 70.3279 30.2662 70.2732 31.1858 69.5844L43.7552 60.1718L38.5842 55.94L33.4131 51.7082L28.2037 69.909Z" fill="#A7A9B4"/>
</g>
<defs>
<clipPath id="clip0_69_297">
<rect width="81" height="81" fill="white"/>
</clipPath>
</defs>
</svg>
