<svg width="87" height="87" viewBox="0 0 87 87" fill="none" xmlns="http://www.w3.org/2000/svg">
<g clip-path="url(#clip0_69_294)">
<path d="M86.5388 63.5095C86.4334 63.2824 86.3352 63.0941 86.244 62.9432C84.7346 60.2247 81.85 56.8878 77.5922 52.9318L77.5023 52.8412L77.4572 52.7967L77.4117 52.7512H77.366C75.4335 50.9091 74.2098 49.6704 73.6974 49.0363C72.7597 47.8283 72.5497 46.6055 73.0621 45.3666C73.4242 44.4305 74.7842 42.4537 77.1389 39.4333C78.3776 37.8327 79.3585 36.5498 80.0829 35.5833C85.3076 28.6373 87.5727 24.1988 86.8778 22.2659L86.608 21.8142C86.4266 21.5422 85.9586 21.2935 85.2045 21.0666C84.4487 20.8402 83.4826 20.8028 82.3046 20.9536L69.2593 21.0437C69.048 20.9689 68.7462 20.9758 68.3531 21.0666C67.9604 21.1573 67.764 21.2029 67.764 21.2029L67.5369 21.3163L67.3567 21.4526C67.2057 21.5427 67.0396 21.7012 66.8582 21.9278C66.6778 22.1535 66.5269 22.4185 66.4064 22.7204C64.9861 26.3744 63.3713 29.7717 61.559 32.9121C60.4416 34.7847 59.4154 36.4076 58.4782 37.7817C57.5423 39.1554 56.7571 40.1674 56.1234 40.8162C55.4888 41.4656 54.9161 41.9858 54.4017 42.3788C53.8881 42.7719 53.4961 42.938 53.2246 42.8773C52.9525 42.8165 52.6963 42.7562 52.4537 42.6959C52.0312 42.424 51.6914 42.0542 51.4352 41.5861C51.1778 41.1181 51.0046 40.529 50.914 39.8194C50.8239 39.1092 50.7705 38.4984 50.7553 37.9848C50.7412 37.4719 50.7477 36.7464 50.7783 35.8103C50.8097 34.8737 50.8239 34.2401 50.8239 33.9079C50.8239 32.7601 50.8462 31.5145 50.8911 30.1707C50.9368 28.8269 50.9738 27.7622 51.0047 26.9778C51.0355 26.1926 51.0498 25.3619 51.0498 24.4861C51.0498 23.6103 50.9965 22.9235 50.8911 22.425C50.787 21.9271 50.6273 21.4439 50.4167 20.9754C50.2049 20.5073 49.8949 20.1453 49.4881 19.8883C49.0805 19.6316 48.5738 19.4278 47.9708 19.2765C46.3701 18.9143 44.3318 18.7183 41.8551 18.6879C36.2385 18.6276 32.6296 18.9903 31.029 19.7755C30.3949 20.1072 29.821 20.5605 29.308 21.1339C28.7642 21.7985 28.6884 22.1612 29.0809 22.2208C30.8931 22.4923 32.176 23.1416 32.931 24.1683L33.2031 24.7123C33.4147 25.1049 33.6261 25.7998 33.8376 26.7961C34.0487 27.7925 34.185 28.8947 34.245 30.102C34.3957 32.3069 34.3957 34.1942 34.245 35.7643C34.0938 37.335 33.951 38.5577 33.8147 39.4335C33.6784 40.3093 33.4747 41.0189 33.2031 41.5623C32.931 42.1059 32.75 42.4381 32.6592 42.5587C32.5686 42.6793 32.4931 42.7553 32.4331 42.7851C32.0406 42.9355 31.6324 43.0121 31.2099 43.0121C30.7868 43.0121 30.2737 42.8005 29.6698 42.3775C29.0662 41.9545 28.4396 41.3735 27.7903 40.6336C27.1409 39.8934 26.4085 38.8592 25.5929 37.5306C24.7779 36.202 23.9322 34.6318 23.0564 32.82L22.3319 31.506C21.8789 30.6606 21.2602 29.4298 20.475 27.8145C19.6893 26.1986 18.9949 24.6355 18.3912 23.1256C18.1499 22.4915 17.7873 22.0087 17.3042 21.6765L17.0775 21.5402C16.9268 21.4196 16.6848 21.2916 16.3529 21.1551C16.0206 21.0188 15.6737 20.9211 15.311 20.861L2.89959 20.9511C1.6313 20.9511 0.770748 21.2384 0.317628 21.8123L0.136285 22.0837C0.0456928 22.2349 0 22.4764 0 22.8088C0 23.141 0.0905923 23.5488 0.271935 24.0315C2.08378 28.2899 4.05412 32.3967 6.18296 36.3526C8.3118 40.3085 10.1617 43.4951 11.7316 45.9095C13.3018 48.3257 14.9024 50.606 16.5332 52.7495C18.164 54.8937 19.2435 56.2678 19.7716 56.8715C20.3004 57.4763 20.7158 57.9285 21.0177 58.2304L22.1504 59.3173C22.8751 60.0422 23.9394 60.9104 25.3436 61.9218C26.7482 62.9339 28.3032 63.9302 30.0094 64.9125C31.7159 65.8931 33.7011 66.6934 35.9662 67.3123C38.2311 67.9318 40.4354 68.1805 42.5796 68.0605H47.7889C48.8454 67.9693 49.6458 67.6371 50.1899 67.0637L50.3701 66.8366C50.4913 66.6564 50.6048 66.3764 50.7095 65.9996C50.8154 65.6221 50.8681 65.2063 50.8681 64.754C50.8372 63.4557 50.936 62.2856 51.1619 61.2439C51.3877 60.2025 51.6451 59.4173 51.9329 58.8885C52.2205 58.3602 52.5451 57.9143 52.9064 57.5529C53.2684 57.1907 53.5264 56.9713 53.6777 56.8958C53.8282 56.8198 53.9483 56.7682 54.0389 56.7373C54.7636 56.4958 55.6165 56.7296 56.5989 57.4399C57.5805 58.1496 58.5012 59.0259 59.3624 60.0673C60.2231 61.1097 61.2572 62.2791 62.4649 63.5774C63.6734 64.8761 64.73 65.8416 65.6356 66.4767L66.5412 67.0202C67.146 67.3829 67.9312 67.7151 68.8977 68.017C69.8625 68.3188 70.7078 68.3943 71.4337 68.2434L83.0293 68.0626C84.1762 68.0626 85.0687 67.8727 85.7017 67.4959C86.336 67.1184 86.7128 66.7026 86.8344 66.2502C86.9556 65.7974 86.9621 65.2837 86.8574 64.7094C86.75 64.1365 86.6441 63.7359 86.5388 63.5095Z" fill="#9D9D9D"/>
</g>
<defs>
<clipPath id="clip0_69_294">
<rect width="87" height="87" fill="white"/>
</clipPath>
</defs>
</svg>
