<svg width="200" height="200" viewBox="0 0 200 200" fill="none" xmlns="http://www.w3.org/2000/svg">
<g id="asset 1">
<path id="Vector" d="M165.963 134.037C160.496 139.504 151.631 139.504 146.164 134.037L122.027 109.899C116.559 104.432 116.559 95.5681 122.027 90.1001L146.164 65.9631C151.631 60.4961 160.496 60.4961 165.963 65.9631L190.101 90.1001C195.568 95.5681 195.568 104.432 190.101 109.899L165.963 134.037ZM53.836 134.037C48.369 139.504 39.504 139.504 34.036 134.037L9.9 109.899C4.432 104.432 4.432 95.5681 9.9 90.1001L34.037 65.9631C39.504 60.4961 48.369 60.4961 53.836 65.9631L77.973 90.1001C83.441 95.5681 83.441 104.432 77.973 109.899L53.836 134.037ZM109.9 190.1C104.432 195.568 95.568 195.568 90.1 190.1L65.963 165.963C60.496 160.496 60.496 151.631 65.963 146.164L90.101 122.027C95.568 116.559 104.432 116.559 109.9 122.027L134.037 146.164C139.504 151.631 139.504 160.496 134.037 165.963L109.9 190.1ZM109.9 77.9731C104.432 83.4411 95.568 83.4411 90.1 77.9731L65.963 53.8361C60.496 48.3681 60.496 39.5041 65.963 34.0361L90.101 9.90005C95.568 4.43305 104.432 4.43305 109.9 9.90005L134.037 34.0381C139.504 39.5051 139.504 48.3691 134.037 53.8371L109.9 77.9731Z" fill="url(#paint0_linear_54_184)"/>
</g>
<defs>
<linearGradient id="paint0_linear_54_184" x1="5.799" y1="5.7998" x2="194.201" y2="5.7998" gradientUnits="userSpaceOnUse">
<stop stop-color="#69EACB"/>
<stop offset="0.48" stop-color="#EACCF8"/>
<stop offset="1" stop-color="#6654F1"/>
</linearGradient>
</defs>
</svg>
